<?xml version="1.0" standalone="no"?>
<!DOCTYPE svg PUBLIC "-//W3C//DTD SVG 1.1//EN" "http://www.w3.org/Graphics/SVG/1.1/DTD/svg11.dtd" >
<svg xmlns="http://www.w3.org/2000/svg" xmlns:xlink="http://www.w3.org/1999/xlink" version="1.1">
<metadata>
Created by FontForge 20190801 at Mon Apr 30 11:17:11 2007
 By Jimmy Wärting
Copyright \(c\) 1998 Elsner+Flake. All Rights Reserved.
</metadata>
<defs>
<font id="ElanEF-Medium" horiz-adv-x="500" >
  <font-face 
    font-family="ElanEF"
    font-weight="500"
    font-stretch="normal"
    units-per-em="1000"
    panose-1="0 0 0 0 0 0 0 0 0 0"
    ascent="800"
    descent="-200"
    x-height="473"
    cap-height="667"
    bbox="-120 -250 1216 931"
    underline-thickness="20"
    underline-position="-176"
    stemh="91"
    stemv="121"
    unicode-range="U+0020-FB02"
  />
<missing-glyph horiz-adv-x="280" 
 />
    <glyph glyph-name=".notdef" horiz-adv-x="280" 
 />
    <glyph glyph-name="space" unicode=" " horiz-adv-x="250" 
 />
    <glyph glyph-name="exclam" unicode="!" horiz-adv-x="397" 
d="M312 654c-49 -12 -49 -61 -50 -103l-8 -350h-110l-9 350c-1 41 -1 91 -49 103v13c29 -1 59 -2 89 -2h48c30 0 59 1 89 2v-13zM286 70c0 -47 -37 -87 -85 -87s-87 39 -87 87c0 47 38 87 86 87s86 -39 86 -87z" />
    <glyph glyph-name="quotedbl" unicode="&#x22;" horiz-adv-x="364" 
d="M316 667l-18 -268h-71l-18 268h107zM155 667l-18 -268h-71l-18 268h107z" />
    <glyph glyph-name="numbersign" unicode="#" horiz-adv-x="600" 
d="M589 484l-13 -88h-105l-18 -112h107l-14 -88h-106l-31 -196h-99l31 196h-114l-31 -196h-98l31 196h-108l14 88h107l18 112h-107l13 88h107l29 183h98l-29 -183h114l29 183h99l-29 -183h105zM371 396h-113l-18 -112h114z" />
    <glyph glyph-name="dollar" unicode="$" horiz-adv-x="578" 
d="M482 198c0 -60 -22 -115 -73 -149c-29 -20 -48 -26 -82 -35v-104h-74v98c-53 2 -95 11 -145 28l-12 131h12c36 -43 87 -63 142 -63c53 0 109 25 109 85c0 127 -254 112 -254 298c0 94 60 148 146 171v103h74v-102c16 -2 31 -4 46 -8c14 -4 39 -12 53 -12c6 0 12 3 18 5
h13v-140h-13c-33 41 -77 61 -129 61c-42 0 -86 -23 -86 -70c0 -106 255 -97 255 -297z" />
    <glyph glyph-name="percent" unicode="%" horiz-adv-x="867" 
d="M845 200c0 -108 -40 -210 -164 -210s-164 102 -164 210c0 107 41 210 164 210c124 0 164 -102 164 -210zM624 667l-294 -667h-88l295 667h87zM349 467c0 -108 -39 -210 -163 -210c-123 0 -164 101 -164 209s40 211 164 211c123 0 163 -103 163 -210zM757 199
c0 51 -5 144 -76 144s-76 -93 -76 -144c0 -50 7 -142 76 -142s76 92 76 142zM262 466c0 51 -6 144 -76 144c-71 0 -77 -94 -77 -145c0 -50 8 -141 77 -141s76 92 76 142z" />
    <glyph glyph-name="ampersand" unicode="&#x26;" horiz-adv-x="795" 
d="M834 478c-11 -36 -27 -95 -56 -122c-25 -24 -52 -26 -86 -26c-18 0 -35 0 -53 1c16 -29 24 -54 24 -87c0 -119 -102 -204 -207 -239c-44 -15 -91 -22 -138 -22c-131 0 -269 67 -269 215c0 91 56 150 142 171c-62 20 -99 67 -99 133c0 107 93 181 196 181
c32 0 58 -8 89 -15c5 -1 13 -3 18 -3c4 0 8 1 11 3h14v-139h-14c-17 39 -50 56 -91 56c-56 0 -100 -40 -100 -97s44 -89 98 -89c18 0 35 4 52 8l12 -6l-42 -82c-12 1 -24 1 -36 1c-65 0 -126 -42 -126 -112c0 -85 80 -129 156 -129c104 0 213 71 213 184c0 33 -6 48 -26 75
c-16 1 -31 2 -47 2c-33 0 -60 -3 -80 -32l-17 5c38 82 59 114 153 114h167c53 0 95 9 126 55z" />
    <glyph glyph-name="quoteright" unicode="&#x2019;" horiz-adv-x="310" 
d="M277 667l-146 -234h-98l72 234h172z" />
    <glyph glyph-name="parenleft" unicode="(" horiz-adv-x="271" 
d="M244 -205h-80c-66 137 -108 283 -108 436c0 152 41 300 108 436h80c-41 -141 -63 -289 -63 -436c0 -148 23 -293 63 -436z" />
    <glyph glyph-name="parenright" unicode=")" horiz-adv-x="271" 
d="M215 231c0 -152 -41 -300 -108 -436h-80c40 143 63 287 63 436s-23 293 -63 436h80c68 -138 108 -282 108 -436z" />
    <glyph glyph-name="asterisk" unicode="*" horiz-adv-x="578" 
d="M431 476l-32 -54l-81 52l3 -97h-63l3 97l-82 -52l-32 54l88 46l-88 46l32 55l82 -53l-3 97h63l-3 -97l81 53l32 -55l-88 -46z" />
    <glyph glyph-name="plus" unicode="+" 
d="M467 291h-169v-163h-96v163h-169v90h169v163h96v-163h169v-90z" />
    <glyph glyph-name="comma" unicode="," horiz-adv-x="307" 
d="M275 90l-145 -217h-98l70 217h173z" />
    <glyph glyph-name="hyphen" unicode="-" horiz-adv-x="325" 
d="M281 196h-237v92h237v-92z" />
    <glyph glyph-name="period" unicode="." horiz-adv-x="289" 
d="M230 70c0 -46 -37 -87 -84 -87c-48 0 -87 39 -87 87c0 47 37 87 85 87s86 -39 86 -87z" />
    <glyph glyph-name="slash" unicode="/" horiz-adv-x="578" 
d="M534 667l-388 -869h-102l390 869h100z" />
    <glyph glyph-name="zero" unicode="0" horiz-adv-x="578" 
d="M545 333c0 -170 -55 -350 -256 -350s-256 181 -256 350s56 350 256 350s256 -181 256 -350zM420 332c0 87 -9 254 -131 254s-131 -167 -131 -255c0 -85 13 -250 131 -250s131 166 131 251z" />
    <glyph glyph-name="one" unicode="1" horiz-adv-x="578" 
d="M401 0c-38 1 -76 2 -114 2c-36 0 -73 -1 -109 -2v12c12 3 24 9 31 20c22 32 19 135 19 173v252c0 23 0 47 -5 70c-9 46 -37 51 -79 51v14l192 95h15v-482c0 -38 -3 -142 19 -174c7 -11 18 -16 31 -19v-12z" />
    <glyph glyph-name="two" unicode="2" horiz-adv-x="578" 
d="M500 149l-16 -149h-434v13c35 38 66 80 98 120c72 91 202 238 202 357c0 66 -50 96 -111 96c-58 0 -112 -18 -149 -64h-12v145h15c5 -4 10 -6 16 -6c7 0 15 1 22 3c45 11 87 20 133 20c117 0 212 -53 212 -181c0 -98 -73 -213 -132 -288c-30 -39 -63 -77 -91 -118h99
c47 0 119 -2 135 54z" />
    <glyph glyph-name="three" unicode="3" horiz-adv-x="578" 
d="M479 180c0 -140 -116 -197 -241 -197c-57 0 -113 10 -167 27l-15 139l11 1c43 -46 93 -69 156 -69c68 0 131 34 131 109c0 74 -55 108 -124 108c-11 0 -22 0 -33 -1v100c8 0 15 -1 23 -1c59 0 117 27 117 94s-58 96 -118 96c-55 0 -101 -17 -130 -65h-13v146h13
c4 -3 9 -5 14 -5c7 0 15 1 22 3c42 11 81 18 125 18c116 0 213 -53 213 -180c0 -85 -45 -136 -127 -155c38 -7 64 -13 93 -40c37 -33 50 -79 50 -128z" />
    <glyph glyph-name="four" unicode="4" horiz-adv-x="578" 
d="M508 145h-70v-10c0 -39 4 -112 52 -123v-12c-36 1 -72 2 -108 2c-37 0 -73 -1 -110 -2v12c53 17 52 88 52 133h-297v79l397 463h14v-452h70v-90zM327 232v219l-182 -219h182z" />
    <glyph glyph-name="five" unicode="5" horiz-adv-x="578" 
d="M506 220c0 -157 -108 -237 -258 -237c-53 0 -106 9 -157 24l-15 143l12 2c33 -52 85 -71 145 -71c85 0 148 42 148 132c0 73 -37 124 -113 124c-45 0 -76 -12 -101 -50l-84 19l36 361h354v-147h-12c-16 53 -76 49 -121 49h-108l-17 -152c31 13 57 18 90 18
c127 0 201 -93 201 -215z" />
    <glyph glyph-name="six" unicode="6" horiz-adv-x="578" 
d="M536 220c0 -149 -103 -237 -248 -237c-144 0 -246 93 -246 239c0 69 25 134 60 192c39 65 84 127 130 187c7 9 20 24 20 37c0 12 -11 17 -22 16v13c35 -2 72 -2 107 -2c33 0 68 0 101 2v-11c-47 -45 -86 -93 -128 -143c-20 -24 -43 -48 -60 -75c28 10 47 14 77 14
c133 0 209 -106 209 -232zM411 221c0 73 -43 138 -121 138c-77 0 -123 -65 -123 -138c0 -72 47 -140 124 -140c78 0 120 69 120 140z" />
    <glyph glyph-name="seven" unicode="7" horiz-adv-x="578" 
d="M503 652l-205 -573c-4 -13 -12 -28 -12 -42c0 -15 10 -22 24 -25v-12c-22 1 -43 2 -65 2h-48c-20 0 -40 -1 -60 -2v11l215 558h-118c-35 0 -119 3 -148 -19c-11 -7 -17 -19 -22 -31h-12v148h451v-15z" />
    <glyph glyph-name="eight" unicode="8" horiz-adv-x="578" 
d="M530 180c0 -134 -121 -197 -241 -197s-241 63 -241 197c0 90 52 148 138 169c-74 25 -117 74 -117 154c0 124 109 180 220 180s219 -56 219 -180c0 -80 -41 -129 -116 -154c87 -21 138 -78 138 -169zM383 493c0 58 -36 97 -95 97c-57 0 -94 -41 -94 -97
c0 -57 38 -95 95 -95c58 0 94 38 94 95zM405 190c0 72 -45 115 -116 115s-116 -43 -116 -115c0 -69 48 -113 116 -113s116 44 116 113z" />
    <glyph glyph-name="nine" unicode="9" horiz-adv-x="578" 
d="M523 472c0 -38 -10 -87 -23 -123c-29 -80 -68 -158 -108 -233c-8 -15 -39 -68 -39 -85c0 -12 9 -18 20 -19v-12c-32 2 -64 2 -96 2c-29 0 -59 0 -88 -2v11c55 82 107 166 153 254c-31 -12 -61 -17 -94 -17c-125 0 -205 86 -205 210c0 147 102 225 243 225
c127 0 237 -75 237 -211zM398 461c0 69 -42 125 -114 125c-71 0 -116 -51 -116 -120c0 -68 43 -124 114 -124c70 0 116 50 116 119z" />
    <glyph glyph-name="colon" unicode=":" horiz-adv-x="289" 
d="M230 403c0 -47 -37 -86 -84 -86s-87 38 -87 86c0 47 37 87 85 87s86 -39 86 -87zM230 70c0 -46 -37 -87 -84 -87c-48 0 -87 39 -87 87c0 47 37 87 85 87s86 -39 86 -87z" />
    <glyph glyph-name="semicolon" unicode=";" horiz-adv-x="307" 
d="M250 403c0 -47 -37 -86 -85 -86c-47 0 -87 38 -87 86s38 87 86 87s86 -40 86 -87zM275 90l-145 -217h-98l70 217h173z" />
    <glyph glyph-name="less" unicode="&#x3c;" 
d="M467 80l-434 211v82l434 210v-96l-331 -155l330 -156z" />
    <glyph glyph-name="equal" unicode="=" 
d="M467 379h-434v85h434v-85zM467 218h-434v85h434v-85z" />
    <glyph glyph-name="greater" unicode="&#x3e;" 
d="M467 290l-434 -210v96l331 156l-330 156l-1 95l434 -210v-83z" />
    <glyph glyph-name="question" unicode="?" horiz-adv-x="451" 
d="M408 510c0 -95 -62 -148 -122 -214c-29 -32 -35 -53 -37 -97h-100v18c0 117 136 186 136 280c0 61 -48 89 -104 89c-52 0 -97 -23 -124 -68h-14v150h14c4 -2 8 -4 13 -4c8 0 17 2 25 4c37 9 73 15 112 15c110 0 201 -54 201 -173zM290 70c0 -47 -37 -87 -85 -87
s-87 39 -87 87s38 87 86 87s86 -40 86 -87z" />
    <glyph glyph-name="at" unicode="@" horiz-adv-x="733" 
d="M698 382c0 -33 -6 -66 -17 -98c-21 -61 -74 -136 -146 -136c-39 0 -70 23 -76 62c-28 -43 -74 -68 -125 -68c-88 0 -140 78 -140 160c0 97 70 201 175 201c47 0 84 -21 105 -64l10 52h68l-39 -201c-3 -14 -7 -30 -7 -45c0 -19 9 -40 31 -40c50 0 83 76 93 116
c4 19 7 40 7 60c0 145 -113 234 -252 234c-162 0 -286 -126 -286 -287c0 -111 63 -221 170 -260c39 -14 77 -19 118 -19c69 0 135 12 199 40l17 -62c-68 -28 -142 -39 -215 -39c-201 0 -355 135 -355 341c0 196 154 348 349 348c171 0 316 -117 316 -295zM453 347
c0 46 -26 86 -76 86c-66 0 -106 -70 -106 -129c0 -48 28 -93 80 -93c69 0 102 77 102 136z" />
    <glyph glyph-name="A" unicode="A" horiz-adv-x="668" 
d="M679 0c-30 2 -61 2 -91 2c-40 0 -80 -1 -120 -2v13c17 3 28 12 28 30c0 27 -32 91 -41 113h-251c-9 -21 -44 -91 -44 -116c0 -16 11 -24 25 -27v-13c-39 1 -79 2 -118 2c-26 0 -52 0 -78 -2v13c32 13 43 46 57 76l280 612h17l282 -620c12 -26 27 -55 54 -68v-13zM418 255
l-87 210l-87 -210h174z" />
    <glyph glyph-name="B" unicode="B" horiz-adv-x="578" 
d="M542 187c0 -72 -32 -131 -98 -161c-54 -25 -110 -26 -169 -26h-251v12c42 9 46 51 48 87c2 19 2 39 2 58v353c0 19 0 39 -2 58c-2 35 -6 79 -48 86v13h233c59 0 120 0 173 -29c50 -27 77 -78 77 -134c0 -75 -46 -118 -115 -138c94 -23 150 -79 150 -179zM376 493
c0 68 -59 86 -116 86c-22 0 -43 -2 -65 -5v-174c12 -1 25 -2 37 -2c63 0 144 17 144 95zM411 196c0 93 -76 116 -156 116c-20 0 -40 -2 -60 -3v-125c0 -67 6 -92 78 -92c70 0 138 22 138 104z" />
    <glyph glyph-name="C" unicode="C" horiz-adv-x="614" 
d="M592 150l-16 -134c-60 -23 -117 -33 -181 -33c-208 0 -353 143 -353 351c0 198 135 349 337 349c47 0 91 -8 137 -19c12 -3 24 -5 36 -5c8 0 14 3 20 8h14v-145h-13c-49 42 -106 60 -170 60c-143 0 -230 -109 -230 -247c0 -137 83 -250 227 -250c66 0 131 21 179 68z" />
    <glyph glyph-name="D" unicode="D" horiz-adv-x="686" 
d="M644 333c0 -227 -159 -333 -372 -333h-242v12c42 8 46 49 48 85c2 19 2 41 2 60v353c0 19 0 41 -2 60c-2 34 -7 77 -48 84v13h238c83 0 169 -12 239 -60c92 -62 137 -165 137 -274zM513 329c0 144 -91 239 -236 239c-23 0 -46 -2 -69 -6v-379c0 -70 13 -83 83 -83
c141 0 222 91 222 229z" />
    <glyph glyph-name="E" unicode="E" horiz-adv-x="506" 
d="M478 151l-16 -151h-432v13c40 8 45 44 48 78c2 22 2 45 2 67v352c0 22 0 45 -2 67c-3 35 -8 70 -48 78v12h435v-146h-13c-19 49 -67 47 -113 47h-131v-167h110c44 0 91 2 109 50h12c-1 -31 -2 -63 -2 -94c0 -34 1 -67 2 -101h-12c-14 45 -67 47 -107 47h-112v-150
c0 -55 21 -55 71 -55h67c46 0 103 4 120 55z" />
    <glyph glyph-name="F" unicode="F" horiz-adv-x="488" 
d="M461 523h-12c-20 49 -73 45 -118 45h-123v-165h100c41 0 98 2 116 47h12c0 -64 -2 -127 0 -191h-12c-23 47 -70 45 -116 45h-100v-147c0 -44 -6 -132 51 -145v-12c-38 1 -77 2 -115 2s-76 -1 -114 -2v12c39 8 45 45 48 79c2 22 2 44 2 66v353c0 22 0 44 -2 66
c-3 34 -9 71 -48 79v12h431v-144z" />
    <glyph glyph-name="G" unicode="G" horiz-adv-x="686" 
d="M648 35c-47 -21 -90 -34 -141 -42c-37 -6 -74 -10 -112 -10c-205 0 -353 137 -353 345c0 102 41 206 117 275c67 60 141 80 229 80c52 0 100 -8 151 -21c8 -2 16 -4 25 -4c8 0 14 3 19 9h13v-145h-13c-52 42 -113 60 -179 60c-146 0 -231 -109 -231 -249
c0 -132 83 -248 223 -248c43 0 85 10 124 28v115c0 38 -4 86 -50 95v12h178v-300z" />
    <glyph glyph-name="H" unicode="H" horiz-adv-x="704" 
d="M674 0c-39 1 -77 2 -116 2c-38 0 -77 -1 -115 -2v12c57 11 51 101 51 145v139h-286v-139c0 -44 -4 -134 53 -145v-12c-41 1 -82 2 -123 2c-36 0 -72 -1 -108 -2v12c41 8 46 47 49 83c2 21 2 41 2 62v352c0 21 0 41 -2 62c-3 35 -8 76 -49 83v13c25 -1 49 -2 74 -2
c52 0 105 0 157 2v-13c-58 -10 -53 -102 -53 -145v-109h286v109c0 42 6 135 -51 145v13c24 -1 49 -2 73 -2h85c24 0 49 1 73 2v-13c-58 -10 -52 -102 -52 -145v-352c0 -44 -5 -134 52 -145v-12z" />
    <glyph glyph-name="I" unicode="I" horiz-adv-x="289" 
d="M259 0c-31 1 -63 2 -94 2h-50c-28 0 -57 -1 -85 -2v12c40 9 45 46 48 81c2 22 2 43 2 64v353c0 21 0 42 -2 64c-3 34 -8 73 -48 80v13c39 -1 77 -2 116 -2c38 0 75 1 113 2v-13c-57 -10 -51 -102 -51 -144v-353c0 -21 0 -42 2 -63c3 -35 9 -73 49 -82v-12z" />
    <glyph glyph-name="J" unicode="J" horiz-adv-x="451" 
d="M412 655c-58 -13 -52 -100 -52 -145c0 -111 1 -221 1 -332c0 -52 -8 -103 -48 -140c-43 -40 -101 -55 -159 -55c-51 0 -100 12 -148 28l-12 137l13 1c32 -42 76 -64 129 -64c94 0 96 71 96 148v277c0 23 0 46 -3 68c-3 37 -9 73 -52 77v12c39 -1 79 -2 118 -2s78 1 117 2
v-12z" />
    <glyph glyph-name="K" unicode="K" horiz-adv-x="632" 
d="M665 2c-30 -1 -60 -6 -91 -6c-68 0 -96 10 -140 63l-226 272v-174c0 -19 0 -39 2 -58c2 -37 7 -78 49 -87v-12c-38 1 -75 2 -113 2c-39 0 -77 -1 -116 -2v12c42 9 46 49 48 86c2 20 2 39 2 59v353c0 20 0 39 -2 59c-2 35 -6 78 -48 85v13c39 -1 77 -2 116 -2
c38 0 75 1 113 2v-13c-57 -10 -51 -102 -51 -144v-116l197 203c9 10 21 23 21 37s-10 20 -23 20v13c43 -2 87 -2 130 -2c38 0 76 1 114 2v-13c-47 -10 -92 -55 -124 -88l-190 -195l229 -270c27 -32 62 -71 103 -86v-13z" />
    <glyph glyph-name="L" unicode="L" horiz-adv-x="451" 
d="M453 150l-16 -150h-407v12c42 7 46 50 48 86c2 20 2 39 2 59v353c0 20 0 39 -2 59c-2 34 -6 79 -48 85v13c38 -1 77 -2 115 -2s75 1 113 2v-13c-56 -10 -50 -103 -50 -144v-303c0 -19 -3 -73 9 -89c14 -19 44 -18 65 -18h48c46 0 89 5 110 52z" />
    <glyph glyph-name="M" unicode="M" horiz-adv-x="867" 
d="M881 0c-37 1 -75 2 -112 2c-32 0 -63 -1 -95 -2v12c19 6 29 18 29 38c0 11 -2 22 -4 33l-67 322l-196 -426h-17l-197 426l-69 -321c-3 -12 -7 -26 -7 -39c0 -18 13 -28 29 -33v-12c-31 2 -63 2 -94 2c-32 0 -63 0 -95 -2v12c8 3 16 6 23 12c16 16 26 63 31 84l149 593h15
l226 -488l225 488h16l155 -601c10 -38 17 -70 55 -88v-12z" />
    <glyph glyph-name="N" unicode="N" horiz-adv-x="722" 
d="M692 654c-41 -7 -45 -50 -47 -84c-2 -20 -2 -40 -2 -60v-536h-14l-433 455v-272c0 -21 0 -41 2 -62c2 -36 6 -77 50 -83v-12c-37 1 -74 2 -111 2c-36 0 -71 -1 -107 -2v12c42 9 46 49 48 85c2 20 2 40 2 60v540h14l434 -458v271c0 21 0 42 -2 62c-3 36 -7 79 -51 82v13
c37 -1 73 -2 110 -2c36 0 71 1 107 2v-13z" />
    <glyph glyph-name="O" unicode="O" horiz-adv-x="794" 
d="M752 336c0 -207 -142 -353 -350 -353c-209 0 -360 142 -360 353c0 213 148 347 357 347c207 0 353 -138 353 -347zM621 334c0 133 -79 248 -221 248c-144 0 -227 -116 -227 -252c0 -134 84 -245 224 -245c143 0 224 114 224 249z" />
    <glyph glyph-name="P" unicode="P" horiz-adv-x="560" 
d="M538 470c0 -128 -95 -209 -220 -209c-16 0 -32 2 -48 5l-29 98l12 3c12 -3 21 -4 33 -4c63 0 119 36 119 104c0 80 -65 106 -135 106c-21 0 -41 -2 -62 -6v-410c0 -20 0 -40 2 -60c3 -35 7 -78 49 -85v-12c-40 1 -80 2 -120 2c-36 0 -73 -1 -109 -2v12c42 9 46 49 48 85
c2 20 2 40 2 60v353c0 20 0 40 -2 60c-2 35 -7 77 -48 84v13h226c69 0 143 0 202 -39c56 -37 80 -92 80 -158z" />
    <glyph glyph-name="Q" unicode="Q" horiz-adv-x="794" 
d="M801 -67c-28 -27 -72 -77 -113 -77c-20 0 -45 13 -62 22c-65 34 -132 68 -194 107c-14 -1 -29 -2 -43 -2c-201 0 -347 152 -347 352c0 214 148 348 358 348c208 0 352 -140 352 -349c0 -138 -61 -246 -182 -314c29 -15 169 -88 198 -88c8 0 17 6 23 10zM621 334
c0 133 -82 248 -223 248s-225 -119 -225 -252c0 -132 86 -245 224 -245c142 0 224 115 224 249z" />
    <glyph glyph-name="R" unicode="R" horiz-adv-x="614" 
d="M625 -1c-30 -3 -59 -6 -89 -6c-65 0 -89 21 -122 75l-174 284l6 8c10 -2 20 -3 30 -3c67 0 136 33 136 109c0 83 -72 107 -143 107c-21 0 -40 -1 -61 -4v-412c0 -20 0 -40 2 -59c3 -36 7 -77 49 -86v-12c-38 1 -77 2 -115 2s-76 -1 -114 -2v12c42 9 46 49 48 85
c2 20 2 40 2 60v353c0 20 0 40 -2 60c-2 35 -7 77 -48 84v13h248c61 0 119 -2 173 -32c61 -33 92 -91 92 -160c0 -88 -47 -144 -129 -172l150 -233c16 -25 31 -50 61 -59v-12z" />
    <glyph glyph-name="S" unicode="S" horiz-adv-x="469" 
d="M442 187c0 -138 -111 -204 -238 -204c-57 0 -111 12 -164 32l-13 136l13 1c37 -49 96 -71 157 -71c60 0 120 36 120 101c0 133 -280 113 -280 317c0 117 97 184 207 184c38 0 73 -8 110 -17c9 -2 19 -5 28 -5c7 0 12 2 18 6h14v-146h-14c-33 45 -85 66 -140 66
c-47 0 -99 -27 -99 -80c0 -12 1 -24 8 -34c18 -31 97 -68 128 -84c88 -45 145 -96 145 -202z" />
    <glyph glyph-name="T" unicode="T" horiz-adv-x="506" 
d="M495 522h-13c-21 44 -70 45 -113 45h-54v-410c0 -46 -6 -132 54 -145v-12c-40 1 -79 2 -119 2c-38 0 -76 -1 -114 -2v12c39 8 45 41 48 76c3 23 3 46 3 69v410h-50c-42 0 -93 0 -113 -45h-13l13 145h458z" />
    <glyph glyph-name="U" unicode="U" horiz-adv-x="686" 
d="M665 654c-57 -10 -51 -102 -51 -144v-229c0 -77 0 -149 -52 -210c-56 -66 -137 -88 -221 -88c-74 0 -153 19 -206 73c-52 53 -64 113 -64 185v269c0 41 6 136 -50 144v13c38 -1 75 -2 113 -2s77 1 115 2v-13c-40 -7 -45 -48 -48 -82c-2 -20 -2 -41 -2 -62v-228
c0 -45 0 -107 28 -145c27 -36 72 -52 116 -52c48 0 99 19 123 63c23 41 21 91 21 136v226c0 21 0 42 -2 63c-3 34 -8 74 -48 81v13c38 -1 77 -2 115 -2s75 1 113 2v-13z" />
    <glyph glyph-name="V" unicode="V" horiz-adv-x="668" 
d="M680 654c-40 -17 -54 -62 -71 -99l-266 -582h-19l-274 600c-14 31 -28 68 -62 81v13c24 -2 49 -2 73 -2c47 0 95 1 142 2v-13c-17 -4 -28 -15 -28 -33c0 -19 15 -55 22 -72l138 -325l154 352c7 15 13 32 13 49s-8 25 -24 29v13c42 -1 84 -2 126 -2c25 0 51 0 76 2v-13z
" />
    <glyph glyph-name="W" unicode="W" horiz-adv-x="957" 
d="M975 654c-39 -16 -51 -49 -66 -86l-236 -593h-15l-172 436l-172 -436h-15l-236 586c-14 36 -31 77 -69 93v13c32 -2 63 -2 95 -2c41 0 82 1 123 2v-13c-20 -1 -30 -13 -30 -33c0 -16 6 -33 11 -48l116 -317l171 433h15l175 -433l115 305c6 17 15 41 15 59
c0 19 -8 31 -27 34v13c39 -1 79 -2 118 -2c28 0 56 1 84 2v-13z" />
    <glyph glyph-name="X" unicode="X" horiz-adv-x="632" 
d="M633 0c-28 2 -55 2 -83 2c-46 0 -93 0 -139 -2v12c15 1 29 7 29 24c0 14 -9 28 -16 40l-111 184l-110 -189c-5 -9 -13 -23 -13 -34c0 -16 13 -24 28 -25v-12c-33 1 -66 2 -98 2h-66c-18 0 -37 -1 -55 -2v12c42 11 65 52 86 86l158 259l-139 219c-21 32 -41 70 -82 78v13
c32 -1 65 -2 97 -2c43 0 87 1 130 2v-13c-14 -1 -26 -7 -26 -22c0 -12 9 -27 15 -37l84 -138l82 141c5 9 12 20 12 31c0 18 -13 24 -29 25v13c31 -1 61 -2 92 -2h71c19 0 38 1 57 2v-13c-44 -10 -68 -55 -90 -90l-127 -207l178 -281c18 -28 34 -50 65 -64v-12z" />
    <glyph glyph-name="Y" unicode="Y" horiz-adv-x="578" 
d="M591 654c-35 -11 -53 -44 -71 -74l-167 -286v-137c0 -21 0 -42 2 -62c3 -36 7 -74 47 -83v-12c-38 1 -75 2 -113 2s-77 -1 -115 -2v12c41 9 46 46 49 82c2 21 2 42 2 63v137l-160 278c-18 31 -42 70 -78 82v13c31 -1 61 -2 92 -2c40 0 81 1 121 2v-13
c-11 -1 -22 -6 -22 -19c0 -8 4 -16 8 -23l107 -202l109 200c4 8 8 18 8 27c0 12 -10 16 -20 17v13c38 -1 75 -2 113 -2c29 0 59 1 88 2v-13z" />
    <glyph glyph-name="Z" unicode="Z" horiz-adv-x="542" 
d="M525 153l-16 -153h-492v15l315 553h-133c-41 0 -126 2 -146 -45h-13v144h480v-14l-319 -555h158c47 0 139 -3 153 57z" />
    <glyph glyph-name="bracketleft" unicode="[" horiz-adv-x="307" 
d="M297 -205h-217v872h217v-77h-111v-717h111v-78z" />
    <glyph glyph-name="backslash" unicode="\" 
d="M455 -83h-94l-335 833h95z" />
    <glyph glyph-name="bracketright" unicode="]" horiz-adv-x="307" 
d="M227 -205h-217v77h111v717h-111v78h217v-872z" />
    <glyph glyph-name="asciicircum" unicode="^" 
d="M483 352h-102l-131 240l-131 -240h-102l170 317h126z" />
    <glyph glyph-name="underscore" unicode="_" 
d="M500 -145h-500v87h500v-87z" />
    <glyph glyph-name="quoteleft" unicode="&#x2018;" horiz-adv-x="271" 
d="M249 667l-72 -234h-173l147 234h98z" />
    <glyph glyph-name="a" unicode="a" horiz-adv-x="542" 
d="M516 0c-30 1 -60 2 -90 2c-26 0 -53 -1 -79 -2v233c-22 -10 -44 -16 -68 -20c-29 -5 -104 -16 -124 -41c-8 -10 -9 -24 -9 -36c0 -44 37 -64 77 -64c31 0 57 7 82 26l12 -3l-29 -94c-31 -12 -65 -18 -99 -18c-92 0 -163 53 -163 150c0 68 41 117 105 137
c50 16 103 22 154 31c28 5 62 13 62 48c0 45 -61 53 -95 53c-54 0 -113 -17 -154 -54h-14l12 124h14c4 0 9 -3 14 -3c12 0 25 4 37 7c38 10 78 14 118 14c121 0 185 -49 185 -174v-111c0 -38 -3 -142 21 -174c8 -11 19 -16 31 -19v-12z" />
    <glyph glyph-name="b" unicode="b" horiz-adv-x="632" 
d="M591 241c0 -142 -83 -258 -233 -258c-68 0 -118 18 -163 71c-2 -18 -5 -36 -9 -54c-22 1 -43 2 -65 2c-32 0 -63 -1 -95 -2v12c47 11 48 67 50 106c2 29 2 58 2 87v257c0 38 3 144 -22 175c-8 10 -19 15 -30 17v13h169v-408c0 -92 37 -179 141 -179c93 0 136 74 136 159
c0 80 -42 154 -130 154c-40 0 -73 -11 -102 -40l-11 2l14 105c44 18 79 30 127 30c147 0 221 -111 221 -249z" />
    <glyph glyph-name="c" unicode="c" horiz-adv-x="469" 
d="M437 132l-16 -126c-44 -15 -84 -23 -130 -23c-152 0 -250 98 -250 250c0 95 48 208 143 243c29 11 60 14 90 14c35 0 63 -7 96 -16c9 -2 19 -5 28 -5c5 0 10 2 15 4h14v-127h-14c-33 32 -65 47 -112 47c-94 0 -141 -69 -141 -157s52 -156 144 -156c50 0 88 14 120 53z
" />
    <glyph glyph-name="d" unicode="d" horiz-adv-x="632" 
d="M606 0c-34 1 -69 2 -103 2c-22 0 -44 0 -66 -2v217c0 48 0 95 -34 132c-28 31 -64 44 -105 44c-91 0 -138 -70 -138 -155c0 -82 41 -158 132 -158c40 0 74 11 105 37l10 -4l-36 -115c-31 -10 -61 -15 -93 -15c-148 0 -237 102 -237 247c0 143 89 260 239 260
c63 0 116 -19 157 -68v40c0 38 3 144 -22 175c-8 9 -19 14 -30 17v13h169v-462c0 -28 0 -56 1 -84c2 -41 2 -97 51 -109v-12z" />
    <glyph glyph-name="e" unicode="e" horiz-adv-x="560" 
d="M524 254c0 -14 -2 -29 -3 -43h-360c9 -83 60 -135 145 -135c61 0 120 18 165 60l13 -3l-14 -116c-56 -25 -108 -34 -169 -34c-155 0 -260 95 -260 252c0 151 96 255 249 255c144 0 234 -93 234 -236zM403 296c-13 64 -50 104 -118 104c-67 0 -106 -41 -121 -104h239z" />
    <glyph glyph-name="f" unicode="f" horiz-adv-x="307" 
d="M329 560h-12c-21 17 -43 27 -70 27c-60 0 -49 -73 -49 -113h109v-91h-107v-178c0 -38 -3 -144 21 -175c8 -10 18 -15 29 -18v-12c-35 1 -70 2 -105 2c-38 0 -75 -1 -113 -2v12c11 3 22 8 30 17c25 31 21 138 21 176v178h-62v91h62c0 50 -9 130 28 171c25 28 62 38 99 38
c23 0 45 -4 67 -10c8 -2 21 -6 29 -6c4 0 8 2 11 3h12v-110z" />
    <glyph glyph-name="g" unicode="g" horiz-adv-x="632" 
d="M606 461c-45 -11 -47 -75 -49 -112c-2 -27 -2 -53 -2 -80v-237c0 -66 3 -134 -47 -184s-119 -67 -188 -67c-66 0 -132 14 -192 40l-13 122l13 1c51 -45 117 -66 185 -66c32 0 75 8 98 32c29 29 27 77 27 115v197c0 44 -3 91 -32 126c-26 32 -66 45 -106 45
c-90 0 -140 -65 -140 -151c0 -80 45 -146 130 -146c41 0 72 14 106 37l12 -4l-37 -113c-34 -11 -64 -16 -100 -16c-142 0 -230 99 -230 238c0 143 89 252 237 252c70 0 118 -20 163 -74c3 19 5 38 10 57h155v-12z" />
    <glyph glyph-name="h" unicode="h" horiz-adv-x="596" 
d="M570 0c-36 1 -72 2 -108 2s-73 -1 -109 -2v12c36 9 42 31 45 66c2 21 3 43 3 64c1 40 1 81 1 121c0 66 -11 127 -90 127c-34 0 -66 -15 -88 -41c-35 -41 -31 -94 -31 -144c0 -39 -3 -145 23 -176c7 -9 18 -14 29 -17v-12c-37 1 -73 2 -110 2c-36 0 -73 -1 -109 -2v12
c11 3 22 7 29 16c26 30 22 140 22 177v257c0 37 4 146 -22 176c-7 9 -18 14 -29 16v13h167v-259c38 59 94 82 163 82c53 0 114 -15 142 -65c27 -48 21 -113 21 -166v-54c0 -38 -3 -145 22 -176c7 -9 18 -14 29 -17v-12z" />
    <glyph glyph-name="i" unicode="i" horiz-adv-x="271" 
d="M208 615c0 -42 -35 -75 -76 -75s-73 34 -73 75s34 75 75 75s74 -34 74 -75zM245 0c-30 1 -60 2 -90 2h-40c-30 0 -60 -1 -90 -2v12c12 3 23 8 31 18c24 31 21 137 21 175v64c0 38 3 144 -21 175c-8 10 -19 15 -31 17v12h168v-268c0 -39 -3 -143 22 -175
c7 -10 18 -15 30 -18v-12z" />
    <glyph glyph-name="j" unicode="j" horiz-adv-x="271" 
d="M213 615c0 -42 -35 -75 -77 -75c-41 0 -73 34 -73 75s34 75 75 75s75 -34 75 -75zM195 -5c0 -52 6 -112 -26 -157c-29 -41 -70 -52 -119 -52c-40 0 -79 4 -117 18l-10 103l12 1c26 -15 50 -26 81 -26c12 0 26 1 37 8c27 16 25 79 25 106v273c0 38 3 144 -21 175
c-7 10 -18 15 -30 17v12h168v-478z" />
    <glyph glyph-name="k" unicode="k" horiz-adv-x="560" 
d="M572 0c-30 -3 -61 -5 -91 -5c-55 0 -76 11 -112 53l-175 207v-50c0 -39 -3 -142 22 -175c8 -9 18 -15 30 -18v-12c-37 1 -74 2 -111 2c-36 0 -73 -1 -109 -2v12c11 3 23 8 30 17c25 31 21 139 21 176v257c0 37 3 145 -21 176c-8 9 -19 13 -30 16v13h168v-367l123 111
c8 7 20 20 20 32c0 14 -15 18 -26 18v12c78 -2 156 -2 234 0v-12c-37 -6 -62 -33 -89 -57l-134 -123l167 -195c25 -29 48 -58 83 -74v-12z" />
    <glyph glyph-name="l" unicode="l" horiz-adv-x="271" 
d="M245 0c-30 1 -60 2 -91 2h-38c-30 0 -60 -1 -90 -2v12c12 3 23 8 30 18c24 31 21 137 21 175v257c0 38 3 144 -21 175c-7 9 -18 14 -30 17v13h168v-462c0 -38 -3 -142 21 -174c7 -10 18 -16 30 -19v-12z" />
    <glyph glyph-name="m" unicode="m" horiz-adv-x="867" 
d="M841 0c-37 1 -73 2 -110 2c-36 0 -72 -1 -108 -2v12c12 3 24 8 31 19c22 32 19 137 19 174v62c0 61 -4 123 -80 123c-107 0 -101 -108 -101 -185c0 -38 -3 -141 19 -173c7 -11 19 -17 31 -20v-12c-35 1 -71 2 -106 2c-37 0 -75 -1 -112 -2v12c13 3 24 8 32 19
c22 32 19 136 19 174v58c0 59 -2 127 -77 127c-79 0 -104 -63 -104 -132v-53c0 -21 1 -42 1 -63s1 -42 3 -62c5 -35 12 -58 48 -68v-12c-36 1 -72 2 -108 2c-37 0 -75 -1 -112 -2v12c12 3 24 9 31 19c23 32 20 136 20 174v64c0 38 3 142 -20 174c-7 10 -19 15 -31 18v12h149
c7 -23 9 -47 13 -70c34 62 87 87 156 87c63 0 111 -25 138 -83c33 59 84 83 150 83c86 0 151 -46 157 -135c2 -27 1 -54 1 -81v-69c0 -38 -3 -141 19 -173c8 -11 19 -17 32 -20v-12z" />
    <glyph glyph-name="n" unicode="n" horiz-adv-x="596" 
d="M570 0c-36 1 -72 2 -108 2s-73 -1 -109 -2v12c11 3 21 7 29 16c25 30 21 140 21 177v55c0 69 -8 130 -91 130c-108 0 -118 -101 -118 -185c0 -21 1 -42 1 -63s1 -42 3 -64c4 -34 10 -58 47 -66v-12c-37 1 -73 2 -110 2c-36 0 -73 -1 -109 -2v12c11 3 22 8 29 16
c26 31 22 139 22 177v64c0 37 4 147 -22 177c-7 8 -18 13 -29 15v12h154c5 -22 8 -45 12 -67c37 61 92 84 162 84c52 0 108 -16 139 -61c24 -36 25 -59 26 -103c1 -23 1 -47 1 -71v-50c0 -38 -3 -145 22 -176c7 -9 17 -14 28 -17v-12z" />
    <glyph glyph-name="o" unicode="o" horiz-adv-x="596" 
d="M564 238c0 -163 -107 -255 -266 -255c-158 0 -266 93 -266 255c0 163 108 252 266 252s266 -89 266 -252zM444 238c0 91 -52 155 -146 155s-147 -64 -147 -155c0 -93 50 -158 147 -158s146 65 146 158z" />
    <glyph glyph-name="p" unicode="p" horiz-adv-x="632" 
d="M591 235c0 -144 -83 -252 -233 -252c-34 0 -65 7 -97 17l-37 113l13 4c32 -24 60 -36 101 -36c91 0 133 70 133 154c0 83 -46 158 -136 158c-42 0 -88 -18 -114 -52c-28 -36 -27 -95 -27 -139v-199c0 -29 0 -58 2 -87c2 -39 3 -94 50 -106v-12c-73 2 -147 2 -220 0v12
c12 3 23 8 30 17c25 31 22 138 22 176v266c0 38 3 145 -22 176c-8 9 -19 14 -30 16v12h154c4 -19 7 -37 9 -56c46 54 96 73 166 73c148 0 236 -114 236 -255z" />
    <glyph glyph-name="q" unicode="q" horiz-adv-x="632" 
d="M606 -202c-29 1 -57 1 -86 1c-45 0 -91 0 -136 -1v12c48 12 49 68 51 109c2 28 2 56 2 84v217c0 49 0 94 -36 132c-28 29 -62 41 -102 41c-92 0 -139 -72 -139 -158c0 -83 44 -155 134 -155c42 0 70 12 104 36l11 -5l-38 -112c-31 -10 -64 -16 -97 -16
c-148 0 -233 112 -233 253c0 147 91 254 242 254c67 0 116 -18 159 -71c3 18 5 36 10 54h154v-12c-47 -12 -49 -68 -51 -109c-2 -27 -2 -55 -2 -83v-266c0 -28 0 -56 2 -84c2 -41 4 -95 51 -109v-12z" />
    <glyph glyph-name="r" unicode="r" horiz-adv-x="379" 
d="M371 345h-13c-13 26 -31 37 -60 37c-99 0 -104 -103 -104 -177c0 -38 -3 -143 22 -175c7 -10 18 -15 30 -18v-12c-48 1 -97 1 -145 1c-25 0 -50 -1 -75 -1v12c11 3 22 8 30 17c24 31 21 138 21 176v64c0 37 3 145 -21 176c-8 9 -19 14 -30 16v12h149c5 -22 8 -44 10 -66
c29 52 60 83 122 83c22 0 44 -3 64 -12v-133z" />
    <glyph glyph-name="s" unicode="s" horiz-adv-x="379" 
d="M347 137c0 -107 -88 -154 -185 -154c-43 0 -78 9 -118 24l-8 116h12c26 -33 59 -52 101 -52c37 0 84 18 84 62c0 90 -201 66 -201 215c0 95 76 142 164 142c29 0 55 -6 82 -16c6 -2 14 -5 21 -5c4 0 8 2 12 4h13v-119h-12c-26 33 -56 48 -98 48c-30 0 -66 -13 -66 -49
c0 -8 0 -16 5 -22c11 -18 68 -44 87 -53c62 -31 107 -66 107 -141z" />
    <glyph glyph-name="t" unicode="t" horiz-adv-x="325" 
d="M315 102l-8 -99c-39 -14 -69 -20 -110 -20c-101 0 -120 43 -120 137v263h-69v22l155 161h30v-92h110v-91h-110v-228c0 -36 5 -72 49 -72c24 0 43 8 62 21z" />
    <glyph glyph-name="u" unicode="u" horiz-adv-x="578" 
d="M552 0c-31 1 -63 2 -94 2c-21 0 -42 -1 -63 -2c-5 20 -8 40 -10 60c-32 -57 -85 -77 -148 -77c-111 0 -160 68 -160 174v112c0 37 4 146 -22 177c-7 8 -18 13 -29 15v12h168v-285c0 -58 22 -105 86 -105c90 0 104 83 104 156v93c0 42 2 117 -50 129v12h166v-268
c0 -39 -3 -145 23 -176c7 -9 18 -14 29 -17v-12z" />
    <glyph glyph-name="v" unicode="v" horiz-adv-x="524" 
d="M538 461c-39 -17 -61 -63 -78 -99l-192 -401h-11l-195 408c-18 38 -34 79 -77 92v12h204v-12c-13 -4 -22 -11 -22 -25c0 -12 5 -24 10 -35l92 -218l92 211c6 13 13 27 13 42c0 16 -11 23 -25 25v12h33c23 0 46 -1 69 -1c19 0 37 1 56 1h31v-12z" />
    <glyph glyph-name="w" unicode="w" horiz-adv-x="794" 
d="M815 461c-36 -13 -50 -44 -65 -77l-198 -420h-9l-144 315l-144 -315h-9l-191 407c-18 39 -33 73 -75 90v12h205v-12c-14 -5 -25 -12 -25 -28c0 -12 5 -28 10 -39l88 -204l141 311h7l143 -313l94 214c4 9 8 24 8 34c0 15 -11 23 -25 25v12h189v-12z" />
    <glyph glyph-name="x" unicode="x" horiz-adv-x="524" 
d="M536 0c-22 1 -44 2 -66 2h-61c-30 0 -60 -1 -90 -2v12c16 2 29 10 29 28c0 11 -5 21 -11 29l-82 118l-78 -112c-6 -9 -16 -27 -16 -38c0 -17 13 -23 28 -25v-12c-27 1 -54 2 -82 2h-61c-20 0 -39 -1 -58 -2v12c38 17 58 47 82 80l116 158l-104 141c-24 33 -38 61 -79 70
v12c75 -2 149 -1 224 0v-12c-16 -2 -30 -9 -30 -27c0 -10 4 -21 10 -29l61 -89l57 85c5 8 13 25 13 34c0 16 -12 24 -27 26v12h207v-12c-38 -12 -47 -31 -70 -62l-110 -149l135 -183c19 -25 32 -44 63 -55v-12z" />
    <glyph glyph-name="y" unicode="y" horiz-adv-x="542" 
d="M560 461c-33 -13 -50 -42 -65 -72l-254 -503c-7 -13 -16 -31 -16 -46c0 -17 9 -24 25 -28v-12c-27 1 -53 2 -80 2c-30 0 -60 -1 -90 -2l135 266l-153 311c-16 33 -33 72 -71 84v12h214v-12c-17 -2 -27 -10 -27 -28c0 -13 7 -32 12 -44l91 -201l89 194c6 14 14 34 14 49
c0 18 -12 27 -29 30v12c35 0 70 0 105 -1c33 -1 67 1 100 1v-12z" />
    <glyph glyph-name="z" unicode="z" horiz-adv-x="433" 
d="M427 458l-239 -366h78c46 0 120 -6 145 43l11 -1l-15 -134h-401v17l241 365h-74c-41 0 -108 3 -132 -39l-12 1l11 129h387v-15z" />
    <glyph glyph-name="braceleft" unicode="{" horiz-adv-x="271" 
d="M260 -205h-56c-40 0 -73 2 -101 33s-30 74 -30 114c0 59 6 118 6 177c0 45 2 91 -44 112c47 22 44 66 44 112c0 59 -6 118 -6 177c0 52 4 104 53 132c25 15 50 15 78 15h56v-21c-16 0 -34 -2 -48 -10c-33 -20 -30 -87 -30 -120v-21c0 -41 2 -82 2 -123
c0 -74 -16 -118 -90 -141c76 -24 90 -68 90 -143c0 -41 -2 -82 -2 -124v-18c0 -24 0 -48 4 -72c8 -46 29 -57 74 -58v-21z" />
    <glyph glyph-name="bar" unicode="|" 
d="M298 -250h-96v1000h96v-1000z" />
    <glyph glyph-name="braceright" unicode="}" horiz-adv-x="271" 
d="M236 231c-51 -24 -44 -78 -44 -127c0 -54 6 -108 6 -162c0 -52 -4 -104 -53 -132c-26 -15 -49 -15 -78 -15h-56v21c45 1 66 12 74 58c4 24 4 48 4 72c0 48 -3 96 -3 144c0 74 17 118 91 141c-76 24 -91 67 -91 143c0 47 3 95 3 142c0 33 3 100 -30 120
c-14 8 -32 10 -48 10v21h56c105 0 131 -48 131 -147c0 -54 -6 -108 -6 -162c0 -47 -7 -104 44 -127z" />
    <glyph glyph-name="asciitilde" unicode="~" horiz-adv-x="667" 
d="M575 703c-33 -67 -69 -121 -152 -121c-62 0 -139 58 -196 58c-42 0 -63 -33 -80 -67l-55 36c29 64 62 125 143 125c69 0 138 -59 201 -59c43 0 62 26 82 61z" />
    <glyph glyph-name="exclamdown" unicode="&#xa1;" horiz-adv-x="397" 
d="M283 404c0 -48 -38 -87 -86 -87s-86 40 -86 87s38 86 85 86s87 -38 87 -86zM312 -193c-28 1 -56 1 -83 1c-48 0 -96 0 -143 -1v12c49 13 48 61 49 103l9 351h110l8 -351c1 -43 1 -90 50 -103v-12z" />
    <glyph glyph-name="cent" unicode="&#xa2;" horiz-adv-x="578" 
d="M482 229l-16 -127c-29 -8 -58 -14 -88 -18v-108h-74v108c-52 8 -82 15 -123 48c-59 48 -86 123 -86 198c0 76 27 155 85 207c41 37 70 44 124 49v108h74v-114c14 -4 55 -16 66 -16c6 0 10 2 15 5h14v-127h-14c-32 30 -71 45 -115 45c-86 0 -129 -75 -129 -153
c0 -85 48 -154 138 -154c48 0 83 14 116 49h13z" />
    <glyph glyph-name="sterling" unicode="&#xa3;" horiz-adv-x="578" 
d="M538 151l-17 -151h-468v12c53 14 66 104 74 149l30 173h-64v94h81c17 95 30 204 134 243c23 9 48 12 73 12c28 0 57 -6 84 -14c4 -1 14 -5 19 -5c4 0 8 2 11 5h14v-146h-13c-15 40 -40 63 -84 63c-87 0 -100 -90 -112 -158h118v-94h-135l-43 -238h134c50 0 134 -2 152 58
z" />
    <glyph glyph-name="fraction" unicode="&#x2044;" horiz-adv-x="144" 
d="M262 667l-294 -667h-88l294 667h88z" />
    <glyph glyph-name="yen" unicode="&#xa5;" horiz-adv-x="578" 
d="M591 654c-35 -11 -53 -44 -71 -74l-43 -72h66v-94h-121l-61 -106h125v-94h-133v-57c0 -21 0 -42 2 -62c3 -36 7 -74 47 -83v-12c-38 1 -76 2 -114 2s-76 -1 -114 -2v12c41 9 46 46 49 82c2 21 2 42 2 63v57h-133v94h125l-61 106h-122v94h68c-24 41 -64 129 -115 146v13
c31 -1 61 -2 92 -2c40 0 81 1 121 2v-13c-12 -1 -22 -6 -22 -19c0 -8 3 -16 7 -23l108 -202l108 200c4 8 9 18 9 27c0 12 -10 16 -20 17v13c38 -1 75 -2 113 -2c29 0 59 1 88 2v-13z" />
    <glyph glyph-name="florin" unicode="&#x192;" horiz-adv-x="578" 
d="M545 669l-22 -111h-12c-20 18 -43 30 -70 30c-55 0 -60 -77 -67 -115h107l-17 -92h-108l-62 -337c-12 -66 -21 -151 -67 -204c-37 -43 -85 -60 -141 -60c-34 0 -66 6 -99 14v101h13c21 -13 38 -20 63 -20c53 0 73 23 90 72c8 25 13 51 18 77l66 357h-61l17 92h62
c20 105 27 210 161 210c30 0 55 -7 84 -14c6 -2 13 -3 19 -3c9 0 15 4 26 3z" />
    <glyph glyph-name="section" unicode="&#xa7;" horiz-adv-x="578" 
d="M506 223c0 -73 -48 -125 -108 -160c37 -33 60 -75 60 -125c0 -106 -92 -153 -187 -153c-36 0 -69 8 -104 16c-7 2 -15 4 -22 4c-5 0 -8 -1 -11 -5h-14v135h14c28 -36 75 -53 119 -53c38 0 83 21 83 65c0 10 -2 21 -7 30c-16 31 -80 68 -109 86c-70 44 -148 89 -148 182
c0 73 50 126 111 159c-39 32 -64 70 -64 122c0 104 92 157 186 157c37 0 71 -7 106 -17c7 -2 15 -4 22 -4c5 0 8 1 12 4h13v-136h-13c-30 36 -71 56 -118 56c-40 0 -86 -20 -86 -66c0 -104 265 -132 265 -297zM388 220c0 56 -77 97 -118 122c-39 -16 -80 -50 -80 -96
c0 -51 61 -83 99 -107l24 -15c36 20 75 51 75 96z" />
    <glyph glyph-name="currency" unicode="&#xa4;" horiz-adv-x="667" 
d="M628 129l-53 -53l-98 98c-44 -31 -89 -49 -143 -49c-55 0 -97 18 -142 48l-98 -97l-53 53l98 98c-31 41 -49 88 -49 140c0 54 16 96 48 140l-99 99l53 53l99 -98c46 31 87 48 143 48c55 0 96 -17 140 -48l99 98l53 -53l-98 -98c31 -45 49 -85 49 -141
c0 -55 -17 -95 -48 -139zM488 367c0 86 -69 155 -155 155s-154 -70 -154 -155c0 -86 69 -155 155 -155s154 70 154 155z" />
    <glyph glyph-name="quotesingle" unicode="'" horiz-adv-x="203" 
d="M155 667l-18 -268h-71l-18 268h107z" />
    <glyph glyph-name="quotedblleft" unicode="&#x201c;" horiz-adv-x="524" 
d="M491 667l-72 -234h-173l147 234h98zM277 667l-71 -234h-173l147 234h97z" />
    <glyph glyph-name="guillemotleft" unicode="&#xab;" horiz-adv-x="506" 
d="M464 108h-110l-127 182l126 180h111l-118 -180zM279 108h-111l-126 182l126 180h111l-118 -180z" />
    <glyph glyph-name="guilsinglleft" unicode="&#x2039;" horiz-adv-x="321" 
d="M279 108h-111l-126 182l126 180h111l-118 -180z" />
    <glyph glyph-name="guilsinglright" unicode="&#x203a;" horiz-adv-x="321" 
d="M279 290l-127 -182h-110l118 182l-118 180h111z" />
    <glyph glyph-name="fi" unicode="&#xfb01;" horiz-adv-x="578" 
d="M517 615c0 -42 -35 -75 -76 -75c-42 0 -74 34 -74 75s34 75 75 75s75 -34 75 -75zM553 0c-37 1 -73 2 -110 2c-36 0 -73 -1 -109 -2v12c11 3 22 8 30 17c24 31 21 138 21 176v178h-185v-178c0 -38 -3 -143 21 -175c7 -9 18 -15 29 -18v-12c-35 1 -70 2 -105 2
c-38 0 -75 -1 -113 -2v12c12 3 23 8 30 18c25 31 21 137 21 175v178h-62v91h62c0 102 -10 209 125 209c23 0 43 -4 65 -10c4 -1 24 -6 29 -6c4 0 8 2 11 3h12v-110h-12c-20 17 -41 27 -68 27c-58 0 -47 -74 -47 -113h304v-269c0 -38 -3 -143 21 -175c8 -9 18 -15 30 -18v-12
z" />
    <glyph glyph-name="fl" unicode="&#xfb02;" horiz-adv-x="578" 
d="M552 0c-30 1 -60 2 -91 2h-38c-30 0 -60 -1 -90 -2v12c12 3 23 8 30 18c24 31 21 137 21 175v257c0 38 3 144 -21 175c-7 9 -18 14 -30 17v13h168v-462c0 -38 -3 -142 21 -174c7 -10 18 -16 30 -19v-12zM312 560h-12c-16 14 -33 27 -55 27c-58 0 -47 -74 -47 -113h92v-91
h-90v-178c0 -38 -3 -143 21 -175c7 -9 18 -15 29 -18v-12c-35 1 -70 2 -105 2c-38 0 -75 -1 -113 -2v12c12 3 23 8 30 18c25 31 21 137 21 175v178h-62v91h62c0 92 -10 210 118 210c32 0 64 -17 88 -17c4 0 8 2 11 3h12v-110z" />
    <glyph glyph-name="endash" unicode="&#x2013;" 
d="M467 291h-434v90h434v-90z" />
    <glyph glyph-name="dagger" unicode="&#x2020;" horiz-adv-x="578" 
d="M488 400l-137 4l-11 -516h-102l-11 516l-137 -4v99l137 -3v41c0 45 -5 98 -52 118v12c29 -1 57 -2 86 -2h56c29 0 57 1 86 2v-12c-60 -26 -52 -106 -52 -159l137 3v-99z" />
    <glyph glyph-name="daggerdbl" unicode="&#x2021;" horiz-adv-x="578" 
d="M488 219l-141 3l-7 -335h-102l-7 335l-141 -3v100l141 -3l-2 88l-139 -3v98l138 -3v41c0 44 -3 101 -53 117v13c38 -1 76 -2 114 -2s76 1 114 2v-13c-62 -20 -53 -107 -53 -158l138 3v-98l-139 3l-2 -88l141 3v-100z" />
    <glyph glyph-name="periodcentered" unicode="&#xb7;" horiz-adv-x="189" 
d="M189 359c0 -51 -41 -94 -93 -94c-53 0 -96 42 -96 95c0 52 41 95 94 95s95 -43 95 -96z" />
    <glyph glyph-name="paragraph" unicode="&#xb6;" horiz-adv-x="616" 
d="M545 591h-66v-687h-82v687h-96v-687h-83v413h-13c-103 0 -181 66 -181 172c0 74 37 138 109 162c35 12 78 16 115 16h297v-76z" />
    <glyph glyph-name="bullet" unicode="&#x2022;" horiz-adv-x="667" 
d="M471 340c0 -75 -61 -140 -137 -140c-77 0 -138 64 -138 140s61 140 138 140c76 0 137 -65 137 -140z" />
    <glyph glyph-name="quotesinglbase" unicode="&#x201a;" horiz-adv-x="310" 
d="M277 90l-146 -234h-98l72 234h172z" />
    <glyph glyph-name="quotedblbase" unicode="&#x201e;" horiz-adv-x="524" 
d="M491 90l-147 -234h-98l72 234h173zM277 90l-146 -234h-98l72 234h172z" />
    <glyph glyph-name="quotedblright" unicode="&#x201d;" horiz-adv-x="524" 
d="M491 667l-147 -234h-98l72 234h173zM277 667l-146 -234h-98l72 234h172z" />
    <glyph glyph-name="guillemotright" unicode="&#xbb;" horiz-adv-x="506" 
d="M464 290l-127 -182h-110l118 182l-118 180h111zM279 290l-127 -182h-110l118 182l-118 180h111z" />
    <glyph glyph-name="ellipsis" unicode="&#x2026;" horiz-adv-x="867" 
d="M808 70c0 -47 -37 -87 -85 -87s-87 39 -87 87c0 47 38 87 86 87s86 -39 86 -87zM519 70c0 -46 -37 -87 -84 -87c-48 0 -87 39 -87 87c0 47 37 87 85 87s86 -39 86 -87zM230 70c0 -46 -37 -87 -84 -87c-48 0 -87 39 -87 87c0 47 37 87 85 87s86 -39 86 -87z" />
    <glyph glyph-name="perthousand" unicode="&#x2030;" horiz-adv-x="1228" 
d="M1216 200c0 -108 -40 -210 -164 -210s-163 102 -163 210c0 107 40 210 163 210c124 0 164 -102 164 -210zM835 200c0 -108 -40 -210 -164 -210s-164 102 -164 210s40 210 164 210c123 0 164 -103 164 -210zM614 667l-294 -667h-88l295 667h87zM339 467
c0 -108 -39 -210 -163 -210c-123 0 -164 101 -164 209s40 211 164 211c123 0 163 -103 163 -210zM1129 199c0 51 -7 144 -77 144s-76 -93 -76 -144c0 -50 7 -142 76 -142s77 91 77 142zM747 199c0 51 -5 144 -76 144c-70 0 -77 -93 -77 -144s8 -142 77 -142s76 92 76 142z
M252 466c0 51 -6 144 -76 144c-71 0 -77 -94 -77 -145c0 -50 8 -141 77 -141c68 0 76 92 76 142z" />
    <glyph glyph-name="questiondown" unicode="&#xbf;" horiz-adv-x="451" 
d="M334 404c0 -47 -38 -87 -86 -87s-86 39 -86 87c0 47 38 86 85 86s87 -38 87 -86zM408 -194h-14c-4 2 -8 4 -13 4c-8 0 -16 -3 -24 -5c-37 -10 -76 -15 -114 -15c-109 0 -200 56 -200 174c0 67 28 111 72 159c27 30 64 62 79 100c6 16 8 34 9 51h100v-16
c0 -117 -136 -185 -136 -281c0 -60 48 -89 103 -89c53 0 97 22 124 68h14v-150z" />
    <glyph glyph-name="grave" unicode="`" 
d="M347 555h-73l-121 129h124z" />
    <glyph glyph-name="acute" unicode="&#xb4;" 
d="M347 684l-120 -129h-74l71 129h123z" />
    <glyph glyph-name="circumflex" unicode="&#x2c6;" 
d="M389 554h-74l-66 78l-64 -78h-74l71 128h136z" />
    <glyph glyph-name="tilde" unicode="&#x2dc;" 
d="M416 677c-4 -48 -25 -119 -85 -119c-52 0 -108 53 -157 53c-27 0 -42 -23 -46 -47h-44c10 50 25 117 88 117c28 0 52 -15 77 -25c14 -6 29 -11 43 -17c10 -4 26 -10 37 -10c28 0 38 23 42 48h45z" />
    <glyph glyph-name="macron" unicode="&#xaf;" 
d="M390 587h-280v67h280v-67z" />
    <glyph glyph-name="breve" unicode="&#x2d8;" 
d="M395 683c-8 -84 -62 -129 -145 -129c-84 0 -135 46 -146 129h54c20 -48 39 -64 92 -64c52 0 72 16 92 64h53z" />
    <glyph glyph-name="dotaccent" unicode="&#x2d9;" 
d="M325 615c0 -42 -35 -75 -76 -75c-42 0 -74 34 -74 75s34 75 75 75s75 -34 75 -75z" />
    <glyph glyph-name="dieresis" unicode="&#xa8;" 
d="M397 620c0 -32 -25 -62 -58 -62s-62 26 -62 60c0 33 26 61 59 61s61 -26 61 -59zM223 620c0 -33 -25 -62 -59 -62c-33 0 -61 26 -61 60c0 33 25 61 59 61c32 0 61 -26 61 -59z" />
    <glyph glyph-name="ring" unicode="&#x2da;" 
d="M348 619c0 -57 -42 -96 -98 -96s-98 39 -98 96c0 56 43 95 98 95s98 -39 98 -95zM305 618c0 32 -23 56 -55 56c-31 0 -55 -24 -55 -55c0 -32 24 -55 56 -55c31 0 54 23 54 54z" />
    <glyph glyph-name="cedilla" unicode="&#xb8;" 
d="M349 -134c0 -55 -41 -80 -92 -80c-19 0 -30 3 -48 9l-5 50h7c13 -13 25 -18 43 -18c24 0 46 13 46 39c0 20 -14 34 -34 34c-16 0 -25 -6 -32 -20l-25 2l5 118h47l-3 -74c11 6 16 9 29 9c41 0 62 -30 62 -69z" />
    <glyph glyph-name="hungarumlaut" unicode="&#x2dd;" 
d="M430 684l-120 -129h-73l70 129h123zM263 684l-120 -129h-73l70 129h123z" />
    <glyph glyph-name="ogonek" unicode="&#x2db;" 
d="M333 -184l-6 -4c-3 4 -5 5 -10 5c-19 0 -37 -8 -57 -8c-48 0 -93 29 -93 81c0 56 50 83 91 110h58c-33 -21 -91 -59 -91 -104c0 -28 25 -42 51 -42c16 0 23 3 36 13z" />
    <glyph glyph-name="caron" unicode="&#x2c7;" 
d="M389 682l-71 -128h-136l-71 128h74l64 -77l66 77h74z" />
    <glyph glyph-name="emdash" unicode="&#x2014;" horiz-adv-x="794" 
d="M752 196h-709v92h709v-92z" />
    <glyph glyph-name="AE" unicode="&#xc6;" horiz-adv-x="849" 
d="M822 149l-15 -149h-359v12c22 2 37 12 37 35c0 6 -1 11 -2 17l-21 92h-247l-55 -95c-5 -8 -8 -14 -8 -24c0 -15 13 -23 26 -25v-12c-40 1 -79 2 -119 2c-30 0 -59 -1 -89 -2v12c32 13 58 54 75 83l296 496c7 11 17 24 17 38c0 18 -13 22 -28 25v13h477v-145h-12
c-17 43 -63 46 -103 46h-196l38 -166h119c45 0 96 2 117 49h13c-1 -32 -2 -65 -2 -97s1 -65 2 -97h-13c-19 48 -76 47 -120 47h-93l32 -142c17 -74 42 -65 110 -65c45 0 93 6 110 54zM445 250l-49 225l-131 -225h180z" />
    <glyph glyph-name="ordfeminine" unicode="&#xaa;" horiz-adv-x="385" 
d="M341 400h-4c-12 0 -24 1 -37 1c-22 0 -44 -1 -66 -1v127c-12 -5 -23 -8 -36 -10c-16 -3 -60 -8 -71 -22c-4 -4 -5 -11 -5 -17c0 -23 22 -32 42 -32c11 0 41 5 48 15l12 -3l-19 -57h-1c-19 -7 -39 -10 -60 -10c-53 0 -99 28 -99 85c0 121 189 69 189 119
c0 24 -36 26 -53 26c-31 0 -65 -9 -89 -30h-13l8 76h12v-1c2 -1 5 -2 7 -2c7 0 14 2 21 4c23 6 47 8 71 8c69 0 112 -25 112 -99v-61c0 -18 -6 -108 31 -103v-13zM345 309h-297v49h297v-49z" />
    <glyph glyph-name="Lslash" unicode="&#x141;" horiz-adv-x="451" 
d="M453 150l-16 -150h-407v12c41 8 45 50 48 85c2 20 2 40 2 60v130l-80 -39v80l80 39v143c0 20 0 40 -2 60c-2 34 -7 78 -48 85v12c38 -1 76 -2 114 -2s76 1 114 2v-12c-56 -10 -50 -104 -50 -145v-93l149 74v-81l-149 -73v-130c0 -26 -7 -92 25 -103c14 -4 35 -4 49 -4h48
c47 0 89 6 111 52z" />
    <glyph glyph-name="Oslash" unicode="&#xd8;" horiz-adv-x="795" 
d="M752 336c0 -207 -140 -353 -348 -353c-56 0 -110 8 -161 31l-64 -105h-103l95 148c-88 73 -129 167 -129 281c0 211 148 345 356 345c56 0 104 -6 156 -28l64 103h103l-97 -145c87 -73 128 -164 128 -277zM622 334c0 68 -18 129 -63 181l-255 -410c30 -14 60 -20 93 -20
c142 0 225 115 225 249zM492 564c-31 13 -60 18 -93 18c-145 0 -226 -116 -226 -252c0 -68 18 -126 63 -178z" />
    <glyph glyph-name="OE" unicode="&#x152;" horiz-adv-x="903" 
d="M876 150l-18 -150h-254c-33 0 -67 0 -100 -4c-39 -4 -78 -9 -118 -9c-202 0 -344 150 -344 350c0 148 83 285 229 327c41 12 83 16 125 16c70 0 139 -13 209 -13h259v-148h-12c-21 50 -77 49 -124 49h-123v-163h107c41 0 103 -2 119 45h13c-2 -34 -2 -68 -2 -102
c0 -31 0 -61 2 -92h-13c-14 49 -75 50 -117 50h-109v-159c0 -47 21 -49 63 -49h67c48 0 109 3 128 55zM478 100v473c-25 6 -49 10 -75 10c-146 0 -230 -112 -230 -251c0 -136 82 -244 224 -244c28 0 54 5 81 12z" />
    <glyph glyph-name="ordmasculine" unicode="&#xba;" horiz-adv-x="385" 
d="M353 534c0 -95 -71 -143 -160 -143c-90 0 -161 47 -161 143s71 142 161 142s160 -46 160 -142zM343 309h-298v49h298v-49zM276 534c0 51 -32 82 -83 82s-84 -30 -84 -82c0 -53 32 -83 84 -83s83 31 83 83z" />
    <glyph glyph-name="ae" unicode="&#xe6;" horiz-adv-x="812" 
d="M776 253c0 -14 -1 -29 -2 -43h-329c8 -80 49 -134 134 -134c58 0 104 18 148 57l14 -2l-16 -118c-50 -21 -104 -30 -158 -30c-158 0 -232 89 -240 242c-17 -6 -33 -9 -50 -12c-31 -6 -100 -16 -121 -43c-8 -10 -10 -23 -10 -36c0 -42 39 -62 76 -62c30 0 58 11 81 30
l12 -4l-29 -100c-32 -10 -58 -15 -92 -15c-93 0 -168 47 -168 147c0 99 80 139 166 153l73 12c29 5 78 13 78 51c0 46 -51 56 -87 56c-62 0 -121 -18 -170 -56l-14 1l12 126h15c4 -2 9 -4 14 -4c20 0 41 7 60 11c31 7 65 10 97 10c59 0 104 -9 147 -51c42 39 90 51 146 51
c145 0 213 -101 213 -237zM659 293c-8 60 -37 107 -103 107c-68 0 -98 -45 -111 -107h214z" />
    <glyph glyph-name="dotlessi" unicode="&#x131;" horiz-adv-x="271" 
d="M245 0c-30 1 -60 2 -90 2h-40c-30 0 -60 -1 -90 -2v12c12 3 23 8 31 18c24 31 21 137 21 175v64c0 38 3 144 -21 175c-8 10 -19 15 -31 17v12h168v-268c0 -39 -3 -143 22 -175c7 -10 18 -15 30 -18v-12z" />
    <glyph glyph-name="lslash" unicode="&#x142;" horiz-adv-x="271" 
d="M271 425l-77 -54v-166c0 -38 -3 -142 21 -174c7 -10 18 -16 30 -19v-12c-30 1 -61 2 -91 2h-38c-30 0 -60 -1 -90 -2v12c12 3 23 8 30 18c24 31 21 137 21 175v97l-77 -54v79l77 54v81c0 38 3 144 -21 175c-7 10 -18 15 -30 18v12h168v-218l77 55v-79z" />
    <glyph glyph-name="oslash" unicode="&#xf8;" horiz-adv-x="596" 
d="M564 237c0 -162 -108 -254 -266 -254c-45 0 -69 5 -112 19l-49 -81h-95l77 117c-63 52 -87 120 -87 201c0 164 111 251 269 251c43 0 67 -3 108 -16l55 85h93l-81 -121c64 -54 88 -119 88 -201zM448 236c0 44 -9 74 -33 111l-174 -261c19 -5 36 -8 56 -8
c97 0 151 64 151 158zM354 387c-18 9 -27 10 -47 10c-102 0 -160 -56 -160 -159c0 -43 10 -73 33 -110z" />
    <glyph glyph-name="oe" unicode="&#x153;" horiz-adv-x="921" 
d="M885 258c0 -16 -2 -32 -4 -48h-336c6 -80 60 -134 141 -134c60 0 108 20 154 58l14 -1l-14 -119c-53 -21 -99 -31 -156 -31c-81 0 -148 23 -201 86c-52 -62 -118 -86 -198 -86c-148 0 -253 101 -253 250c0 71 31 153 86 200c47 40 112 57 173 57c78 0 149 -27 192 -96
c41 68 108 96 185 96c134 0 217 -103 217 -232zM767 296c-6 61 -43 104 -107 104c-66 0 -100 -43 -114 -104h221zM433 237c0 85 -49 156 -140 156s-142 -72 -142 -158c0 -84 52 -155 140 -155c89 0 142 72 142 157z" />
    <glyph glyph-name="germandbls" unicode="&#xdf;" horiz-adv-x="578" 
d="M540 180c0 -119 -70 -197 -191 -197c-32 0 -50 4 -80 15l-27 93l10 4c22 -12 45 -18 70 -18c66 0 98 53 98 114c0 83 -45 127 -128 127h-19v84c62 2 99 30 99 95c0 53 -27 92 -83 92c-76 0 -88 -67 -88 -129v-460c-25 1 -51 2 -76 2c-30 0 -61 -2 -91 -3v12
c11 3 22 9 29 18c24 32 21 137 21 175v108h-61v91h61v42c0 94 22 182 117 220c30 12 63 18 96 18c108 0 189 -63 189 -175c0 -67 -27 -115 -89 -143c36 -7 61 -13 88 -39c39 -38 55 -93 55 -146z" />
    <glyph glyph-name="Eth" unicode="&#xd0;" horiz-adv-x="686" 
d="M644 331c0 -225 -161 -331 -372 -331h-242v12c41 8 46 50 48 85c2 19 2 41 2 60v138h-80v105h80v110c0 19 0 41 -2 60c-2 35 -7 77 -48 85v12h238c84 0 168 -13 239 -60c92 -61 137 -167 137 -276zM513 328c0 144 -90 240 -236 240c-23 0 -46 -2 -69 -6v-162h157v-105
h-157v-113c0 -69 12 -82 83 -82c140 0 222 90 222 228z" />
    <glyph glyph-name="eth" unicode="&#xf0;" horiz-adv-x="582" 
d="M550 242c0 -163 -108 -259 -268 -259c-150 0 -250 98 -250 248c0 136 91 254 234 254c34 0 61 -6 94 -17c-18 33 -45 78 -72 104l-50 -46l-26 29l49 45c-18 20 -37 36 -59 52l52 38c22 -12 42 -25 62 -41l51 48l27 -28l-47 -45c108 -104 203 -225 203 -382zM432 241
c0 85 -52 152 -141 152c-91 0 -140 -68 -140 -154c0 -85 42 -159 135 -159c96 0 146 70 146 161z" />
    <glyph glyph-name="Scaron" unicode="&#x160;" horiz-adv-x="469" 
d="M398 867l-73 -132h-141l-72 132h76l66 -79l68 79h76zM442 188c0 -139 -110 -205 -238 -205c-57 0 -110 13 -164 32l-13 137h13c38 -49 96 -71 157 -71c60 0 120 36 120 101c0 58 -49 85 -95 109c-52 27 -121 59 -154 109c-21 31 -31 61 -31 99c0 117 97 185 207 185
c38 0 73 -8 110 -17c9 -2 19 -5 28 -5c6 0 12 2 18 5h14v-145h-14c-33 44 -85 66 -139 66c-48 0 -101 -25 -101 -80c0 -117 282 -95 282 -320z" />
    <glyph glyph-name="scaron" unicode="&#x161;" horiz-adv-x="379" 
d="M329 682l-72 -128h-136l-71 128h74l65 -77l65 77h75zM346 137c0 -106 -88 -154 -184 -154c-43 0 -78 10 -119 24l-7 116h12c25 -33 58 -52 100 -52c37 0 84 18 84 62c0 88 -200 64 -200 215c0 96 76 142 164 142c29 0 55 -6 82 -16c7 -2 14 -5 21 -5c4 0 8 2 12 4h13
v-120h-13c-25 33 -55 49 -97 49c-30 0 -66 -13 -66 -49c0 -8 1 -16 5 -22c12 -18 68 -44 87 -53c62 -31 106 -67 106 -141z" />
    <glyph glyph-name="Yacute" unicode="&#xdd;" horiz-adv-x="578" 
d="M422 869l-124 -133h-76l73 133h127zM591 655c-34 -11 -54 -45 -71 -74l-167 -287v-137c0 -21 0 -43 2 -64c3 -35 8 -72 48 -81v-12c-38 1 -75 2 -113 2c-39 0 -77 -1 -116 -2v12c40 9 46 45 49 81c2 21 2 43 2 64v137l-160 278c-16 28 -44 74 -78 83v12
c71 -1 141 -1 212 0v-12c-12 -1 -21 -7 -21 -20c0 -8 3 -16 7 -23l108 -202l109 200c5 8 8 18 8 28c0 12 -10 15 -20 17v12c67 -1 134 -2 201 0v-12z" />
    <glyph glyph-name="yacute" unicode="&#xfd;" horiz-adv-x="542" 
d="M401 684l-120 -129h-73l70 129h123zM560 461c-32 -10 -51 -45 -65 -73l-254 -502c-7 -14 -16 -31 -16 -47c0 -17 10 -24 26 -27v-12c-57 2 -114 2 -171 0l135 265l-153 312c-16 32 -33 74 -71 84v12c71 -1 143 -1 214 0v-12c-17 -2 -26 -11 -26 -28c0 -14 6 -32 12 -45
l90 -201l89 195c6 14 14 34 14 49c0 18 -12 27 -29 30v12c43 0 86 -1 129 -1c25 0 51 1 76 1v-12z" />
    <glyph glyph-name="Thorn" unicode="&#xde;" horiz-adv-x="560" 
d="M538 336c0 -128 -96 -208 -220 -208c-16 0 -31 2 -47 4l-30 98l12 3c11 -2 23 -3 34 -3c63 0 118 36 118 104c0 79 -64 106 -134 106c-21 0 -42 -2 -63 -6v-277c0 -42 -6 -136 51 -145v-12c-40 1 -81 2 -121 2c-36 0 -72 -1 -108 -2v12c38 8 44 42 48 76c2 23 2 46 2 69
v332c0 29 1 93 -7 121c-7 23 -17 41 -43 45v12c76 -1 153 -1 229 0v-12c-52 -11 -51 -81 -51 -122c81 0 178 8 250 -38c56 -36 80 -94 80 -159z" />
    <glyph glyph-name="thorn" unicode="&#xfe;" horiz-adv-x="632" 
d="M591 234c0 -143 -84 -251 -233 -251c-35 0 -63 6 -97 17l-37 113l13 4c33 -25 61 -37 102 -37c91 0 132 70 132 154c0 83 -45 159 -136 159c-43 0 -88 -17 -114 -52c-27 -37 -27 -96 -27 -139v-199c0 -27 0 -55 2 -82c2 -41 2 -98 50 -111v-12c-73 1 -147 1 -220 0v12
c49 12 49 67 51 109c1 28 1 56 1 84v459c0 28 0 57 -1 85c-2 40 -2 98 -51 108v12h154c4 -18 9 -37 9 -56v-194c47 53 95 73 166 73c148 0 236 -115 236 -256z" />
    <glyph glyph-name="Zcaron" unicode="&#x17d;" horiz-adv-x="542" 
d="M428 867l-73 -132h-141l-72 132h76l66 -79l68 79h76zM525 153l-16 -153h-492v15l316 554h-134c-43 0 -125 1 -146 -46h-13v144h480v-13l-318 -556h158c47 0 138 -2 153 57z" />
    <glyph glyph-name="zcaron" unicode="&#x17e;" horiz-adv-x="433" 
d="M383 682l-72 -128h-136l-71 128h74l65 -77l65 77h75zM427 457l-240 -365h79c47 0 120 -6 145 43l11 -2l-15 -133h-401v17l241 365h-75c-41 0 -108 3 -131 -39h-12l10 130h388v-16z" />
    <glyph glyph-name="onehalf" unicode="&#xbd;" horiz-adv-x="867" 
d="M784 96l-11 -96h-278v14c36 40 71 82 105 124c33 40 81 99 81 154c0 38 -32 51 -65 51c-35 0 -67 -10 -90 -37h-14v94h16c3 -2 6 -4 9 -4c4 0 8 1 12 2c28 7 55 12 84 12c70 0 136 -30 136 -109c0 -80 -79 -171 -129 -229c-1 -2 -3 -3 -4 -5h51c28 0 72 -3 80 32z
M572 667l-293 -667h-88l294 667h87zM226 267c-50 1 -98 1 -148 0v16c7 1 14 4 19 9c14 17 12 79 12 100v147c0 48 1 67 -52 67v16l123 57h15v-287c0 -21 -2 -84 12 -100c5 -6 12 -8 19 -9v-16z" />
    <glyph glyph-name="onequarter" unicode="&#xbc;" horiz-adv-x="867" 
d="M789 85h-44c0 -21 2 -68 32 -69v-16c-50 1 -98 1 -148 0v16c30 3 31 47 31 69h-179v53l248 274h16v-265h44v-62zM586 667l-293 -667h-88l294 667h87zM220 267c-50 1 -98 1 -148 0v16c7 1 14 4 19 9c14 17 12 79 12 100v147c0 48 1 67 -52 67v16l123 57h15v-287
c0 -21 -2 -84 12 -100c5 -6 12 -8 19 -9v-16zM666 145v108l-97 -108h97z" />
    <glyph glyph-name="onesuperior" unicode="&#xb9;" horiz-adv-x="361" 
d="M255 267c-50 1 -98 1 -148 0v16c7 1 14 4 19 9c14 17 12 79 12 100v147c0 48 1 67 -52 67v16l123 57h15v-287c0 -21 -2 -84 12 -100c5 -6 12 -8 19 -9v-16z" />
    <glyph glyph-name="threequarters" unicode="&#xbe;" horiz-adv-x="867" 
d="M811 85h-43c0 -21 2 -68 32 -69v-16c-50 1 -98 1 -148 0v16c29 4 31 47 31 69h-179v53l249 274h15v-265h43v-62zM623 667l-294 -667h-88l294 667h88zM294 377c0 -88 -79 -120 -155 -120c-36 0 -71 6 -106 17l-11 89l14 1c27 -28 56 -40 95 -40c37 0 76 17 76 59
s-33 59 -71 59c-9 0 -17 -1 -26 -2v69c6 -1 12 -1 18 -1c32 0 69 12 69 50c0 39 -36 52 -69 52s-59 -10 -78 -38h-15v95h14c2 -1 5 -3 8 -3c4 0 8 1 12 2c25 6 52 10 78 10c71 0 137 -30 137 -110c0 -47 -20 -71 -62 -90c49 -19 72 -45 72 -99zM689 145v108l-97 -108h97z
" />
    <glyph glyph-name="threesuperior" unicode="&#xb3;" horiz-adv-x="361" 
d="M303 377c0 -88 -79 -120 -155 -120c-36 0 -71 6 -106 17l-11 89l14 1c27 -28 56 -40 95 -40c37 0 76 17 76 59c0 41 -34 59 -71 59c-9 0 -17 -1 -26 -2v69c6 -1 12 -1 18 -1c32 0 69 12 69 50c0 39 -36 52 -69 52s-59 -10 -78 -38h-15v95h14c2 -1 5 -3 8 -3c4 0 8 1 12 2
c25 6 52 10 78 10c71 0 137 -30 137 -110c0 -47 -20 -71 -62 -90c49 -18 72 -46 72 -99z" />
    <glyph glyph-name="twosuperior" unicode="&#xb2;" horiz-adv-x="361" 
d="M313 362l-11 -96h-278v14c37 40 71 83 105 125c33 41 80 99 80 155c0 37 -31 51 -64 51c-35 0 -67 -11 -90 -38h-14v94h16c3 -1 6 -3 9 -3c4 0 8 1 12 2c27 6 56 11 84 11c70 0 135 -30 135 -109c0 -88 -82 -171 -133 -235h52c28 0 72 -3 80 32z" />
    <glyph glyph-name="brokenbar" unicode="&#xa6;" 
d="M295 317h-89v350h89v-350zM295 -167h-89v320h89v-320z" />
    <glyph glyph-name="minus" unicode="&#x2212;" horiz-adv-x="578" 
d="M548 289h-518v94h518v-94z" />
    <glyph glyph-name="multiply" unicode="&#xd7;" horiz-adv-x="578" 
d="M505 486l-150 -150l149 -150l-65 -66l-150 150l-150 -150l-66 66l150 150l-149 149l66 66l149 -149l150 150z" />
    <glyph glyph-name="Adieresis" unicode="&#xc4;" horiz-adv-x="668" 
d="M506 801c0 -33 -26 -63 -60 -63s-64 26 -64 61c0 34 26 63 61 63c34 0 63 -26 63 -61zM286 801c0 -33 -26 -63 -60 -63s-64 26 -64 61c0 34 27 63 61 63s63 -26 63 -61zM679 0c-30 2 -61 2 -91 2c-40 0 -80 -1 -120 -2v13c17 3 28 12 28 30c0 27 -32 91 -41 113h-251
c-9 -21 -44 -91 -44 -116c0 -16 11 -24 25 -27v-13c-39 1 -79 2 -118 2c-26 0 -52 0 -78 -2v13c32 13 43 46 57 76l280 612h17l282 -620c12 -26 27 -55 54 -68v-13zM418 255l-87 210l-87 -210h174z" />
    <glyph glyph-name="Aring" unicode="&#xc5;" horiz-adv-x="668" 
d="M435 833c0 -59 -43 -98 -101 -98c-57 0 -101 40 -101 98s44 98 101 98s101 -40 101 -98zM679 0c-30 2 -61 2 -91 2c-40 0 -80 -1 -120 -2v13c17 3 28 12 28 30c0 27 -32 91 -41 113h-251c-9 -21 -44 -91 -44 -116c0 -16 11 -24 25 -27v-13c-39 1 -79 2 -118 2
c-26 0 -52 0 -78 -2v13c32 13 43 46 57 76l280 612h17l282 -620c12 -26 27 -55 54 -68v-13zM391 832c0 33 -24 57 -57 57c-32 0 -57 -24 -57 -56c0 -33 25 -57 58 -57c32 0 56 24 56 56zM418 255l-87 210l-87 -210h174z" />
    <glyph glyph-name="Ccedilla" unicode="&#xc7;" horiz-adv-x="614" 
d="M592 150l-16 -134c-55 -21 -114 -33 -173 -33c-10 0 -19 1 -29 1l-4 -65c11 6 19 8 32 8c44 0 70 -34 70 -76c0 -60 -46 -90 -102 -90c-20 0 -39 4 -58 10l-5 57h6c15 -15 32 -21 53 -21c26 0 50 14 50 43c0 24 -15 38 -39 38c-18 0 -27 -6 -36 -21l-30 3l11 119
c-175 33 -280 168 -280 345c0 198 135 349 337 349c47 0 91 -8 137 -19c12 -3 24 -5 36 -5c8 0 14 3 20 8h14v-145h-13c-49 42 -106 60 -170 60c-143 0 -230 -109 -230 -247c0 -137 83 -250 227 -250c66 0 131 21 179 68z" />
    <glyph glyph-name="Eacute" unicode="&#xc9;" horiz-adv-x="506" 
d="M378 869l-124 -133h-76l73 133h127zM478 151l-16 -151h-432v13c40 8 45 44 48 78c2 22 2 45 2 67v352c0 22 0 45 -2 67c-3 35 -8 70 -48 78v12h435v-146h-13c-19 49 -67 47 -113 47h-131v-167h110c44 0 91 2 109 50h12c-1 -31 -2 -63 -2 -94c0 -34 1 -67 2 -101h-12
c-14 45 -67 47 -107 47h-112v-150c0 -55 21 -55 71 -55h67c46 0 103 4 120 55z" />
    <glyph glyph-name="Ntilde" unicode="&#xd1;" horiz-adv-x="722" 
d="M525 859c-5 -49 -26 -120 -87 -120c-53 0 -107 53 -158 53c-27 0 -42 -23 -46 -47h-46c11 51 26 117 90 117c53 0 114 -52 158 -52c29 0 39 24 43 49h46zM692 654c-41 -7 -45 -50 -47 -84c-2 -20 -2 -40 -2 -60v-536h-14l-433 455v-272c0 -21 0 -41 2 -62
c2 -36 6 -77 50 -83v-12c-37 1 -74 2 -111 2c-36 0 -71 -1 -107 -2v12c42 9 46 49 48 85c2 20 2 40 2 60v540h14l434 -458v271c0 21 0 42 -2 62c-3 36 -7 79 -51 82v13c37 -1 73 -2 110 -2c36 0 71 1 107 2v-13z" />
    <glyph glyph-name="Odieresis" unicode="&#xd6;" horiz-adv-x="794" 
d="M576 801c0 -33 -26 -63 -60 -63s-64 26 -64 61c0 34 26 63 61 63c34 0 63 -26 63 -61zM356 801c0 -33 -26 -63 -60 -63s-64 26 -64 61c0 34 26 63 61 63c34 0 63 -26 63 -61zM752 336c0 -207 -142 -353 -350 -353c-209 0 -360 142 -360 353c0 213 148 347 357 347
c207 0 353 -138 353 -347zM621 334c0 133 -79 248 -221 248c-144 0 -227 -116 -227 -252c0 -134 84 -245 224 -245c143 0 224 114 224 249z" />
    <glyph glyph-name="Udieresis" unicode="&#xdc;" horiz-adv-x="686" 
d="M517 801c0 -34 -26 -63 -61 -63c-34 0 -63 26 -63 61c0 34 26 63 61 63c34 0 63 -27 63 -61zM297 801c0 -34 -26 -63 -61 -63c-34 0 -63 26 -63 61c0 34 26 63 61 63c34 0 63 -26 63 -61zM665 654c-57 -10 -51 -102 -51 -144v-229c0 -77 0 -149 -52 -210
c-56 -66 -137 -88 -221 -88c-74 0 -153 19 -206 73c-52 53 -64 113 -64 185v269c0 41 6 136 -50 144v13c38 -1 75 -2 113 -2s77 1 115 2v-13c-40 -7 -45 -48 -48 -82c-2 -20 -2 -41 -2 -62v-228c0 -45 0 -107 28 -145c27 -36 72 -52 116 -52c48 0 99 19 123 63
c23 41 21 91 21 136v226c0 21 0 42 -2 63c-3 34 -8 74 -48 81v13c38 -1 77 -2 115 -2s75 1 113 2v-13z" />
    <glyph glyph-name="aacute" unicode="&#xe1;" horiz-adv-x="542" 
d="M392 684l-120 -129h-73l70 129h123zM516 0c-30 1 -60 2 -90 2c-26 0 -53 -1 -79 -2v233c-22 -10 -44 -16 -68 -20c-29 -5 -104 -16 -124 -41c-8 -10 -9 -24 -9 -36c0 -44 37 -64 77 -64c31 0 57 7 82 26l12 -3l-29 -94c-31 -12 -65 -18 -99 -18c-92 0 -163 53 -163 150
c0 68 41 117 105 137c50 16 103 22 154 31c28 5 62 13 62 48c0 45 -61 53 -95 53c-54 0 -113 -17 -154 -54h-14l12 124h14c4 0 9 -3 14 -3c12 0 25 4 37 7c38 10 78 14 118 14c121 0 185 -49 185 -174v-111c0 -38 -3 -142 21 -174c8 -11 19 -16 31 -19v-12z" />
    <glyph glyph-name="agrave" unicode="&#xe0;" horiz-adv-x="542" 
d="M339 555h-72l-121 129h124zM516 0c-30 1 -60 2 -90 2c-26 0 -53 -1 -79 -2v233c-22 -10 -44 -16 -68 -20c-29 -5 -104 -16 -124 -41c-8 -10 -9 -24 -9 -36c0 -44 37 -64 77 -64c31 0 57 7 82 26l12 -3l-29 -94c-31 -12 -65 -18 -99 -18c-92 0 -163 53 -163 150
c0 68 41 117 105 137c50 16 103 22 154 31c28 5 62 13 62 48c0 45 -61 53 -95 53c-54 0 -113 -17 -154 -54h-14l12 124h14c4 0 9 -3 14 -3c12 0 25 4 37 7c38 10 78 14 118 14c121 0 185 -49 185 -174v-111c0 -38 -3 -142 21 -174c8 -11 19 -16 31 -19v-12z" />
    <glyph glyph-name="acircumflex" unicode="&#xe2;" horiz-adv-x="542" 
d="M410 554h-74l-65 78l-65 -78h-74l71 128h136zM516 0c-30 1 -60 2 -90 2c-26 0 -53 -1 -79 -2v233c-22 -10 -44 -16 -68 -20c-29 -5 -104 -16 -124 -41c-8 -10 -9 -24 -9 -36c0 -44 37 -64 77 -64c31 0 57 7 82 26l12 -3l-29 -94c-31 -12 -65 -18 -99 -18
c-92 0 -163 53 -163 150c0 68 41 117 105 137c50 16 103 22 154 31c28 5 62 13 62 48c0 45 -61 53 -95 53c-54 0 -113 -17 -154 -54h-14l12 124h14c4 0 9 -3 14 -3c12 0 25 4 37 7c38 10 78 14 118 14c121 0 185 -49 185 -174v-111c0 -38 -3 -142 21 -174
c8 -11 19 -16 31 -19v-12z" />
    <glyph glyph-name="adieresis" unicode="&#xe4;" horiz-adv-x="542" 
d="M419 620c0 -32 -26 -62 -59 -62s-62 26 -62 60c0 33 26 61 60 61c32 0 61 -26 61 -59zM244 620c0 -33 -26 -62 -60 -62c-33 0 -63 26 -63 60s27 61 61 61c32 0 62 -26 62 -59zM516 0c-30 1 -60 2 -90 2c-26 0 -53 -1 -79 -2v233c-22 -10 -44 -16 -68 -20
c-29 -5 -104 -16 -124 -41c-8 -10 -9 -24 -9 -36c0 -44 37 -64 77 -64c31 0 57 7 82 26l12 -3l-29 -94c-31 -12 -65 -18 -99 -18c-92 0 -163 53 -163 150c0 68 41 117 105 137c50 16 103 22 154 31c28 5 62 13 62 48c0 45 -61 53 -95 53c-54 0 -113 -17 -154 -54h-14l12 124
h14c4 0 9 -3 14 -3c12 0 25 4 37 7c38 10 78 14 118 14c121 0 185 -49 185 -174v-111c0 -38 -3 -142 21 -174c8 -11 19 -16 31 -19v-12z" />
    <glyph glyph-name="atilde" unicode="&#xe3;" horiz-adv-x="542" 
d="M438 677c-5 -48 -27 -119 -86 -119c-53 0 -107 53 -157 53c-27 0 -42 -23 -46 -47h-44c11 50 25 117 88 117c28 0 51 -14 77 -25c14 -6 29 -11 43 -17c10 -4 26 -10 37 -10c29 0 39 23 43 48h45zM516 0c-30 1 -60 2 -90 2c-26 0 -53 -1 -79 -2v233
c-22 -10 -44 -16 -68 -20c-29 -5 -104 -16 -124 -41c-8 -10 -9 -24 -9 -36c0 -44 37 -64 77 -64c31 0 57 7 82 26l12 -3l-29 -94c-31 -12 -65 -18 -99 -18c-92 0 -163 53 -163 150c0 68 41 117 105 137c50 16 103 22 154 31c28 5 62 13 62 48c0 45 -61 53 -95 53
c-54 0 -113 -17 -154 -54h-14l12 124h14c4 0 9 -3 14 -3c12 0 25 4 37 7c38 10 78 14 118 14c121 0 185 -49 185 -174v-111c0 -38 -3 -142 21 -174c8 -11 19 -16 31 -19v-12z" />
    <glyph glyph-name="aring" unicode="&#xe5;" horiz-adv-x="542" 
d="M369 619c0 -57 -42 -96 -98 -96s-98 39 -98 96c0 56 43 95 98 95s98 -39 98 -95zM516 0c-30 1 -60 2 -90 2c-26 0 -53 -1 -79 -2v233c-22 -10 -44 -16 -68 -20c-29 -5 -104 -16 -124 -41c-8 -10 -9 -24 -9 -36c0 -44 37 -64 77 -64c31 0 57 7 82 26l12 -3l-29 -94
c-31 -12 -65 -18 -99 -18c-92 0 -163 53 -163 150c0 68 41 117 105 137c50 16 103 22 154 31c28 5 62 13 62 48c0 45 -61 53 -95 53c-54 0 -113 -17 -154 -54h-14l12 124h14c4 0 9 -3 14 -3c12 0 25 4 37 7c38 10 78 14 118 14c121 0 185 -49 185 -174v-111
c0 -38 -3 -142 21 -174c8 -11 19 -16 31 -19v-12zM326 618c0 32 -23 56 -55 56c-31 0 -55 -24 -55 -55c0 -32 24 -55 56 -55c31 0 54 23 54 54z" />
    <glyph glyph-name="ccedilla" unicode="&#xe7;" horiz-adv-x="469" 
d="M437 132l-16 -126c-56 -19 -83 -23 -141 -22l-3 -58c10 6 17 9 29 9c41 0 62 -30 62 -69c0 -55 -41 -80 -92 -80c-19 0 -30 3 -48 9l-5 50h7c13 -13 25 -18 43 -18c24 0 46 13 46 39c0 20 -14 34 -34 34c-15 0 -25 -6 -32 -20l-25 2l5 106c-44 10 -70 17 -106 46
c-59 48 -86 124 -86 199c0 96 48 206 143 243c28 11 61 14 90 14c35 0 63 -6 96 -16c9 -3 19 -5 28 -5c5 0 10 2 15 4h14v-127h-14c-33 32 -65 47 -112 47c-94 0 -141 -69 -141 -157s52 -156 144 -156c50 0 88 14 120 53z" />
    <glyph glyph-name="eacute" unicode="&#xe9;" horiz-adv-x="560" 
d="M410 684l-120 -129h-74l71 129h123zM524 254c0 -14 -2 -29 -3 -43h-360c9 -83 60 -135 145 -135c61 0 120 18 165 60l13 -3l-14 -116c-56 -25 -108 -34 -169 -34c-155 0 -260 95 -260 252c0 151 96 255 249 255c144 0 234 -93 234 -236zM403 296c-13 64 -50 104 -118 104
c-67 0 -106 -41 -121 -104h239z" />
    <glyph glyph-name="egrave" unicode="&#xe8;" horiz-adv-x="560" 
d="M359 555h-73l-120 129h123zM524 254c0 -14 -2 -29 -3 -43h-360c9 -83 60 -135 145 -135c61 0 120 18 165 60l13 -3l-14 -116c-56 -25 -108 -34 -169 -34c-155 0 -260 95 -260 252c0 151 96 255 249 255c144 0 234 -93 234 -236zM403 296c-13 64 -50 104 -118 104
c-67 0 -106 -41 -121 -104h239z" />
    <glyph glyph-name="ecircumflex" unicode="&#xea;" horiz-adv-x="560" 
d="M422 554h-75l-65 78l-65 -78h-74l71 128h136zM524 254c0 -14 -2 -29 -3 -43h-360c9 -83 60 -135 145 -135c61 0 120 18 165 60l13 -3l-14 -116c-56 -25 -108 -34 -169 -34c-155 0 -260 95 -260 252c0 151 96 255 249 255c144 0 234 -93 234 -236zM403 296
c-13 64 -50 104 -118 104c-67 0 -106 -41 -121 -104h239z" />
    <glyph glyph-name="edieresis" unicode="&#xeb;" horiz-adv-x="560" 
d="M430 620c0 -32 -26 -62 -59 -62s-62 26 -62 60c0 33 26 61 59 61c32 0 62 -26 62 -59zM255 620c0 -33 -25 -62 -59 -62c-33 0 -61 26 -61 60c0 33 25 61 59 61c33 0 61 -26 61 -59zM524 254c0 -14 -2 -29 -3 -43h-360c9 -83 60 -135 145 -135c61 0 120 18 165 60l13 -3
l-14 -116c-56 -25 -108 -34 -169 -34c-155 0 -260 95 -260 252c0 151 96 255 249 255c144 0 234 -93 234 -236zM403 296c-13 64 -50 104 -118 104c-67 0 -106 -41 -121 -104h239z" />
    <glyph glyph-name="iacute" unicode="&#xed;" horiz-adv-x="271" 
d="M253 684l-120 -129h-74l71 129h123zM245 0c-30 1 -60 2 -90 2h-40c-30 0 -60 -1 -90 -2v12c12 3 23 8 31 18c24 31 21 137 21 175v64c0 38 3 144 -21 175c-8 10 -19 15 -31 17v12h168v-268c0 -39 -3 -143 22 -175c7 -10 18 -15 30 -18v-12z" />
    <glyph glyph-name="igrave" unicode="&#xec;" horiz-adv-x="271" 
d="M219 555h-73l-121 129h124zM245 0c-30 1 -60 2 -90 2h-40c-30 0 -60 -1 -90 -2v12c12 3 23 8 31 18c24 31 21 137 21 175v64c0 38 3 144 -21 175c-8 10 -19 15 -31 17v12h168v-268c0 -39 -3 -143 22 -175c7 -10 18 -15 30 -18v-12z" />
    <glyph glyph-name="icircumflex" unicode="&#xee;" horiz-adv-x="271" 
d="M268 554h-74l-66 78l-64 -78h-75l72 128h135zM245 0c-30 1 -60 2 -90 2h-40c-30 0 -60 -1 -90 -2v12c12 3 23 8 31 18c24 31 21 137 21 175v64c0 38 3 144 -21 175c-8 10 -19 15 -31 17v12h168v-268c0 -39 -3 -143 22 -175c7 -10 18 -15 30 -18v-12z" />
    <glyph glyph-name="idieresis" unicode="&#xef;" horiz-adv-x="271" 
d="M269 620c0 -32 -25 -62 -58 -62s-62 26 -62 60c0 33 26 61 59 61s61 -26 61 -59zM108 620c0 -32 -25 -62 -58 -62s-62 26 -62 60c0 33 25 61 59 61c33 0 61 -26 61 -59zM245 0c-30 1 -60 2 -90 2h-40c-30 0 -60 -1 -90 -2v12c12 3 23 8 31 18c24 31 21 137 21 175v64
c0 38 3 144 -21 175c-8 10 -19 15 -31 17v12h168v-268c0 -39 -3 -143 22 -175c7 -10 18 -15 30 -18v-12z" />
    <glyph glyph-name="ntilde" unicode="&#xf1;" horiz-adv-x="596" 
d="M452 677c-5 -48 -27 -119 -86 -119c-53 0 -105 53 -157 53c-27 0 -41 -23 -45 -47h-45c11 50 25 117 88 117c47 0 117 -52 157 -52c29 0 39 23 43 48h45zM570 0c-36 1 -72 2 -108 2s-73 -1 -109 -2v12c11 3 21 7 29 16c25 30 21 140 21 177v55c0 69 -8 130 -91 130
c-108 0 -118 -101 -118 -185c0 -21 1 -42 1 -63s1 -42 3 -64c4 -34 10 -58 47 -66v-12c-37 1 -73 2 -110 2c-36 0 -73 -1 -109 -2v12c11 3 22 8 29 16c26 31 22 139 22 177v64c0 37 4 147 -22 177c-7 8 -18 13 -29 15v12h154c5 -22 8 -45 12 -67c37 61 92 84 162 84
c52 0 108 -16 139 -61c24 -36 25 -59 26 -103c1 -23 1 -47 1 -71v-50c0 -38 -3 -145 22 -176c7 -9 17 -14 28 -17v-12z" />
    <glyph glyph-name="oacute" unicode="&#xf3;" horiz-adv-x="596" 
d="M426 684l-120 -129h-74l71 129h123zM564 238c0 -163 -107 -255 -266 -255c-158 0 -266 93 -266 255c0 163 108 252 266 252s266 -89 266 -252zM444 238c0 91 -52 155 -146 155s-147 -64 -147 -155c0 -93 50 -158 147 -158s146 65 146 158z" />
    <glyph glyph-name="ograve" unicode="&#xf2;" horiz-adv-x="596" 
d="M366 555h-73l-121 129h124zM564 238c0 -163 -107 -255 -266 -255c-158 0 -266 93 -266 255c0 163 108 252 266 252s266 -89 266 -252zM444 238c0 91 -52 155 -146 155s-147 -64 -147 -155c0 -93 50 -158 147 -158s146 65 146 158z" />
    <glyph glyph-name="ocircumflex" unicode="&#xf4;" horiz-adv-x="596" 
d="M437 554h-74l-66 78l-64 -78h-74l71 128h135zM564 238c0 -163 -107 -255 -266 -255c-158 0 -266 93 -266 255c0 163 108 252 266 252s266 -89 266 -252zM444 238c0 91 -52 155 -146 155s-147 -64 -147 -155c0 -93 50 -158 147 -158s146 65 146 158z" />
    <glyph glyph-name="odieresis" unicode="&#xf6;" horiz-adv-x="596" 
d="M445 620c0 -32 -25 -62 -58 -62s-62 26 -62 60c0 33 26 61 59 61s61 -26 61 -59zM271 620c0 -32 -26 -62 -59 -62s-62 26 -62 60c0 33 26 61 60 61c32 0 61 -26 61 -59zM564 238c0 -163 -107 -255 -266 -255c-158 0 -266 93 -266 255c0 163 108 252 266 252
s266 -89 266 -252zM444 238c0 91 -52 155 -146 155s-147 -64 -147 -155c0 -93 50 -158 147 -158s146 65 146 158z" />
    <glyph glyph-name="otilde" unicode="&#xf5;" horiz-adv-x="596" 
d="M464 677c-4 -48 -25 -119 -85 -119c-52 0 -108 53 -157 53c-27 0 -42 -23 -46 -47h-45c11 50 26 117 89 117c46 0 116 -52 156 -52c29 0 39 23 43 48h45zM564 238c0 -163 -107 -255 -266 -255c-158 0 -266 93 -266 255c0 163 108 252 266 252s266 -89 266 -252zM444 238
c0 91 -52 155 -146 155s-147 -64 -147 -155c0 -93 50 -158 147 -158s146 65 146 158z" />
    <glyph glyph-name="uacute" unicode="&#xfa;" horiz-adv-x="578" 
d="M410 684l-120 -129h-74l71 129h123zM552 0c-31 1 -63 2 -94 2c-21 0 -42 -1 -63 -2c-5 20 -8 40 -10 60c-32 -57 -85 -77 -148 -77c-111 0 -160 68 -160 174v112c0 37 4 146 -22 177c-7 8 -18 13 -29 15v12h168v-285c0 -58 22 -105 86 -105c90 0 104 83 104 156v93
c0 42 2 117 -50 129v12h166v-268c0 -39 -3 -145 23 -176c7 -9 18 -14 29 -17v-12z" />
    <glyph glyph-name="ugrave" unicode="&#xf9;" horiz-adv-x="578" 
d="M385 555h-73l-121 129h124zM552 0c-31 1 -63 2 -94 2c-21 0 -42 -1 -63 -2c-5 20 -8 40 -10 60c-32 -57 -85 -77 -148 -77c-111 0 -160 68 -160 174v112c0 37 4 146 -22 177c-7 8 -18 13 -29 15v12h168v-285c0 -58 22 -105 86 -105c90 0 104 83 104 156v93
c0 42 2 117 -50 129v12h166v-268c0 -39 -3 -145 23 -176c7 -9 18 -14 29 -17v-12z" />
    <glyph glyph-name="ucircumflex" unicode="&#xfb;" horiz-adv-x="578" 
d="M428 554h-74l-66 78l-64 -78h-74l71 128h136zM552 0c-31 1 -63 2 -94 2c-21 0 -42 -1 -63 -2c-5 20 -8 40 -10 60c-32 -57 -85 -77 -148 -77c-111 0 -160 68 -160 174v112c0 37 4 146 -22 177c-7 8 -18 13 -29 15v12h168v-285c0 -58 22 -105 86 -105c90 0 104 83 104 156
v93c0 42 2 117 -50 129v12h166v-268c0 -39 -3 -145 23 -176c7 -9 18 -14 29 -17v-12z" />
    <glyph glyph-name="udieresis" unicode="&#xfc;" horiz-adv-x="578" 
d="M428 620c0 -32 -25 -62 -58 -62c-34 0 -62 26 -62 60c0 33 25 61 59 61c33 0 61 -26 61 -59zM253 620c0 -32 -25 -62 -58 -62s-62 26 -62 60c0 33 26 61 59 61s61 -26 61 -59zM552 0c-31 1 -63 2 -94 2c-21 0 -42 -1 -63 -2c-5 20 -8 40 -10 60c-32 -57 -85 -77 -148 -77
c-111 0 -160 68 -160 174v112c0 37 4 146 -22 177c-7 8 -18 13 -29 15v12h168v-285c0 -58 22 -105 86 -105c90 0 104 83 104 156v93c0 42 2 117 -50 129v12h166v-268c0 -39 -3 -145 23 -176c7 -9 18 -14 29 -17v-12z" />
    <glyph glyph-name="degree" unicode="&#xb0;" 
d="M397 522c0 -81 -67 -145 -147 -145s-147 64 -147 145s68 143 147 143s147 -62 147 -143zM337 522c0 48 -40 85 -87 85s-87 -37 -87 -85s39 -86 87 -86c47 0 87 38 87 86z" />
    <glyph glyph-name="registered" unicode="&#xae;" 
d="M467 557c0 -120 -97 -218 -217 -218s-217 98 -217 218s97 217 217 217s217 -97 217 -217zM432 557c0 100 -82 181 -182 181s-182 -81 -182 -181s82 -182 182 -182s182 82 182 182zM352 447c-4 -2 -26 -3 -31 -3c-22 0 -32 8 -43 26l-57 93l5 6c4 -1 8 -1 12 -1
c19 0 39 9 39 31c0 25 -22 31 -43 31c-5 0 -11 0 -16 -1v-129c0 -10 -2 -45 17 -43v-10h-80v10c17 -3 16 34 16 43v113c0 13 2 38 -13 43l-3 1v10h83c44 0 88 -13 88 -65c0 -27 -15 -44 -38 -56l-2 -1l46 -71c6 -10 9 -15 20 -18v-9z" />
    <glyph glyph-name="copyright" unicode="&#xa9;" horiz-adv-x="780" 
d="M740 333c0 -193 -157 -350 -350 -350s-350 157 -350 350s157 350 350 350s350 -157 350 -350zM687 333c0 164 -131 301 -297 301s-297 -137 -297 -301s132 -300 297 -300s297 136 297 300zM540 228l-10 -85c-2 1 -12 -3 -14 -4c-33 -11 -69 -16 -104 -16
c-126 0 -225 81 -225 211c0 125 92 209 215 209c30 0 58 -4 87 -11c7 -2 14 -3 22 -3c4 0 9 1 12 5h13v-92h-12h-1c-32 25 -66 35 -106 35c-85 0 -141 -59 -141 -143c0 -83 55 -144 140 -144c39 0 84 11 111 40z" />
    <glyph glyph-name="trademark" unicode="&#x2122;" horiz-adv-x="813" 
d="M819 266c-18 3 -51 2 -71 2s-43 1 -62 -2v19l4 2c8 3 13 6 13 15c0 6 -2 12 -3 18l-35 167l-106 -232h-18l-109 233l-35 -168c-1 -6 -4 -14 -4 -20c0 -11 8 -12 17 -14v-20c-11 3 -49 2 -63 2s-49 1 -60 -2v19l4 2c20 7 22 33 27 51l88 349h18l127 -274l126 274h19
l91 -354c5 -18 10 -44 32 -48v-19zM303 569h-19c-16 34 -55 27 -87 27v-231c0 -24 -4 -72 27 -78l5 -1v-20c-16 3 -57 2 -76 2c-22 0 -51 2 -72 -2v20c34 2 29 56 29 79v231h-22c-28 0 -49 1 -62 -27h-19l9 98h278z" />
    <glyph glyph-name="notequal" unicode="&#x2260;" 
d="M467 200h-240l-52 -107h-77l51 107h-115v87h154l40 81h-195v87h235l54 110l78 1l-54 -111h121v-87h-160l-40 -81h200v-87z" />
    <glyph glyph-name="infinity" unicode="&#x221e;" horiz-adv-x="667" 
d="M649 339c0 -91 -64 -157 -155 -157c-69 0 -120 39 -158 94c-40 -53 -93 -94 -162 -94c-93 0 -156 66 -156 158c0 91 65 157 156 157c67 0 119 -41 157 -93c40 54 93 93 162 93c93 0 156 -66 156 -158zM550 340c0 40 -31 70 -71 70c-45 0 -75 -36 -98 -70
c23 -34 53 -71 98 -71c41 0 71 30 71 71zM285 339c-23 35 -52 71 -98 71c-41 0 -70 -31 -70 -71s31 -70 71 -70c44 0 74 37 97 70z" />
    <glyph glyph-name="plusminus" unicode="&#xb1;" 
d="M467 350h-169v-163h-96v163h-169v90h169v163h96v-163h169v-90zM467 60h-434v89h434v-89z" />
    <glyph glyph-name="lessequal" unicode="&#x2264;" 
d="M467 148l-434 201v82l434 201v-91l-331 -151l330 -151zM467 32h-434v87h434v-87z" />
    <glyph glyph-name="greaterequal" unicode="&#x2265;" 
d="M467 349l-434 -201v91l331 151l-330 151l-1 91l434 -201v-82zM467 32h-434v87h434v-87z" />
    <glyph glyph-name="mu" unicode="&#xb5;" 
d="M462 0h-96v73c-25 -53 -58 -85 -119 -85c-53 0 -86 25 -113 69v-227h-96v649h96v-263c0 -79 23 -151 115 -151c40 0 74 20 95 54c21 33 22 65 22 103v257h96v-479z" />
    <glyph glyph-name="partialdiff" unicode="&#x2202;" 
d="M474 255c0 -142 -78 -265 -231 -265c-125 0 -227 101 -227 226c0 118 87 218 208 218c59 0 97 -19 136 -62c-29 67 -52 107 -114 148c-55 37 -113 55 -179 63l13 85c102 -13 188 -36 266 -106c87 -79 128 -191 128 -307zM370 218c0 80 -51 134 -131 134
c-73 0 -123 -71 -123 -139c0 -73 53 -136 128 -136c77 0 126 68 126 141z" />
    <glyph glyph-name="summation" unicode="&#x2211;" horiz-adv-x="667" 
d="M617 -250h-592v98l246 421l-246 384v97h582v-235h-87l-9 148h-377l251 -395l-252 -431h387l5 149h92v-236z" />
    <glyph glyph-name="product" unicode="&#x220f;" horiz-adv-x="713" 
d="M675 -250h-259v87h81v826h-281v-826h80v-87h-258v87h81v826h-81v87h637v-87h-80v-826h80v-87z" />
    <glyph glyph-name="pi" unicode="&#x3c0;" horiz-adv-x="617" 
d="M585 409h-75v-409h-96v409h-210v-409h-97v409h-75v87h553v-87z" />
    <glyph glyph-name="integral" unicode="&#x222b;" 
d="M425 739l-19 -86c-17 7 -30 11 -49 11c-12 0 -25 0 -35 -7c-25 -16 -22 -84 -22 -109v-57l-1 -510c0 -53 6 -132 -27 -177c-30 -40 -76 -53 -124 -53c-25 0 -49 3 -73 10l19 86c17 -7 30 -11 49 -11c13 0 28 0 39 9c21 18 18 92 18 117l1 557c0 26 0 52 1 78
c1 39 2 73 29 105c31 36 71 48 117 48c27 0 51 -5 77 -11z" />
    <glyph glyph-name="Omega" unicode="&#x3a9;" horiz-adv-x="666" 
d="M638 0h-264v78c108 60 163 150 163 275c0 117 -74 243 -203 243c-132 0 -205 -123 -205 -243c0 -125 56 -215 165 -275v-78h-266v87h162c-108 64 -162 151 -162 278c0 174 127 318 305 318c179 0 305 -143 305 -318c0 -128 -52 -213 -161 -278h161v-87z" />
    <glyph glyph-name="logicalnot" unicode="&#xac;" 
d="M467 0h-97v180h-337v87h434v-267z" />
    <glyph glyph-name="radical" unicode="&#x221a;" horiz-adv-x="667" 
d="M667 740h-189l-194 -740h-125l-71 287h-88v87h167l29 -109c12 -46 16 -96 22 -142h8c11 63 21 127 35 189c10 44 22 88 33 132l100 383h273v-87z" />
    <glyph glyph-name="approxequal" unicode="&#x2248;" 
d="M492 472c-32 -66 -71 -121 -152 -121c-67 0 -135 58 -196 58c-42 0 -63 -34 -81 -67l-55 36c29 65 65 125 144 125c70 0 138 -59 200 -59c43 0 63 26 83 61zM492 290c-32 -66 -71 -121 -152 -121c-63 0 -141 58 -196 58c-42 0 -63 -34 -81 -67l-55 36
c29 64 65 125 143 125c69 0 140 -59 202 -59c43 0 62 27 82 61z" />
    <glyph glyph-name="Delta" unicode="&#x394;" horiz-adv-x="667" 
d="M644 0h-621l257 667h104zM503 88l-171 461l-171 -461h342z" />
    <glyph glyph-name="nbspace" unicode="&#xa0;" horiz-adv-x="333" 
 />
    <glyph glyph-name="Agrave" unicode="&#xc0;" horiz-adv-x="668" 
d="M421 736h-76l-124 133h127zM679 0c-30 2 -61 2 -91 2c-40 0 -80 -1 -120 -2v13c17 3 28 12 28 30c0 27 -32 91 -41 113h-251c-9 -21 -44 -91 -44 -116c0 -16 11 -24 25 -27v-13c-39 1 -79 2 -118 2c-26 0 -52 0 -78 -2v13c32 13 43 46 57 76l280 612h17l282 -620
c12 -26 27 -55 54 -68v-13zM418 255l-87 210l-87 -210h174z" />
    <glyph glyph-name="Atilde" unicode="&#xc3;" horiz-adv-x="668" 
d="M502 859c-5 -48 -26 -120 -86 -120c-53 0 -109 53 -159 53c-27 0 -42 -23 -46 -47h-45c11 50 26 117 89 117c52 0 117 -52 158 -52c29 0 39 24 44 49h45zM679 0c-30 2 -61 2 -91 2c-40 0 -80 -1 -120 -2v13c17 3 28 12 28 30c0 27 -32 91 -41 113h-251
c-9 -21 -44 -91 -44 -116c0 -16 11 -24 25 -27v-13c-39 1 -79 2 -118 2c-26 0 -52 0 -78 -2v13c32 13 43 46 57 76l280 612h17l282 -620c12 -26 27 -55 54 -68v-13zM418 255l-87 210l-87 -210h174z" />
    <glyph glyph-name="Otilde" unicode="&#xd5;" horiz-adv-x="794" 
d="M565 859c-5 -49 -25 -120 -86 -120c-53 0 -107 53 -158 53c-27 0 -42 -23 -47 -47h-45c11 50 26 117 89 117c54 0 115 -52 159 -52c29 0 39 24 43 49h45zM752 336c0 -207 -142 -353 -350 -353c-209 0 -360 142 -360 353c0 213 148 347 357 347c207 0 353 -138 353 -347z
M621 334c0 133 -79 248 -221 248c-144 0 -227 -116 -227 -252c0 -134 84 -245 224 -245c143 0 224 114 224 249z" />
    <glyph glyph-name="divide" unicode="&#xf7;" 
d="M310 513c0 -33 -27 -60 -60 -60s-60 27 -60 60s27 60 60 60s60 -27 60 -60zM467 291h-434v90h434v-90zM310 159c0 -33 -27 -60 -60 -60s-60 27 -60 60s27 59 60 59s60 -26 60 -59z" />
    <glyph glyph-name="lozenge" unicode="&#x25ca;" horiz-adv-x="667" 
d="M593 334l-260 -360l-259 360l259 359zM480 334l-147 201l-147 -201l147 -202z" />
    <glyph glyph-name="ydieresis" unicode="&#xff;" horiz-adv-x="542" 
d="M429 620c0 -32 -25 -62 -58 -62s-62 26 -62 60c0 33 26 61 59 61s61 -26 61 -59zM255 620c0 -33 -25 -62 -59 -62c-33 0 -61 26 -61 60c0 33 25 61 59 61c32 0 61 -26 61 -59zM560 461c-33 -13 -50 -42 -65 -72l-254 -503c-7 -13 -16 -31 -16 -46c0 -17 9 -24 25 -28v-12
c-27 1 -53 2 -80 2c-30 0 -60 -1 -90 -2l135 266l-153 311c-16 33 -33 72 -71 84v12h214v-12c-17 -2 -27 -10 -27 -28c0 -13 7 -32 12 -44l91 -201l89 194c6 14 14 34 14 49c0 18 -12 27 -29 30v12c35 0 70 0 105 -1c33 -1 67 1 100 1v-12z" />
    <glyph glyph-name="Ydieresis" unicode="&#x178;" horiz-adv-x="578" 
d="M468 801c0 -34 -26 -63 -61 -63c-34 0 -63 26 -63 61c0 34 26 63 61 63c34 0 63 -27 63 -61zM248 801c0 -33 -26 -63 -60 -63s-64 26 -64 61c0 34 26 63 61 63c34 0 63 -26 63 -61zM591 654c-35 -11 -53 -44 -71 -74l-167 -286v-137c0 -21 0 -42 2 -62
c3 -36 7 -74 47 -83v-12c-38 1 -75 2 -113 2s-77 -1 -115 -2v12c41 9 46 46 49 82c2 21 2 42 2 63v137l-160 278c-18 31 -42 70 -78 82v13c31 -1 61 -2 92 -2c40 0 81 1 121 2v-13c-11 -1 -22 -6 -22 -19c0 -8 4 -16 8 -23l107 -202l109 200c4 8 8 18 8 27
c0 12 -10 16 -20 17v13c38 -1 75 -2 113 -2c29 0 59 1 88 2v-13z" />
    <glyph glyph-name="Acircumflex" unicode="&#xc2;" horiz-adv-x="668" 
d="M477 735h-76l-67 79l-67 -79h-76l72 132h141zM679 0c-30 2 -61 2 -91 2c-40 0 -80 -1 -120 -2v13c17 3 28 12 28 30c0 27 -32 91 -41 113h-251c-9 -21 -44 -91 -44 -116c0 -16 11 -24 25 -27v-13c-39 1 -79 2 -118 2c-26 0 -52 0 -78 -2v13c32 13 43 46 57 76l280 612h17
l282 -620c12 -26 27 -55 54 -68v-13zM418 255l-87 210l-87 -210h174z" />
    <glyph glyph-name="Ecircumflex" unicode="&#xca;" horiz-adv-x="506" 
d="M397 735h-76l-67 79l-67 -79h-76l72 132h142zM478 151l-16 -151h-432v13c40 8 45 44 48 78c2 22 2 45 2 67v352c0 22 0 45 -2 67c-3 35 -8 70 -48 78v12h435v-146h-13c-19 49 -67 47 -113 47h-131v-167h110c44 0 91 2 109 50h12c-1 -31 -2 -63 -2 -94c0 -34 1 -67 2 -101
h-12c-14 45 -67 47 -107 47h-112v-150c0 -55 21 -55 71 -55h67c46 0 103 4 120 55z" />
    <glyph glyph-name="Aacute" unicode="&#xc1;" horiz-adv-x="668" 
d="M434 869l-124 -133h-76l73 133h127zM679 0c-30 2 -61 2 -91 2c-40 0 -80 -1 -120 -2v13c17 3 28 12 28 30c0 27 -32 91 -41 113h-251c-9 -21 -44 -91 -44 -116c0 -16 11 -24 25 -27v-13c-39 1 -79 2 -118 2c-26 0 -52 0 -78 -2v13c32 13 43 46 57 76l280 612h17l282 -620
c12 -26 27 -55 54 -68v-13zM418 255l-87 210l-87 -210h174z" />
    <glyph glyph-name="Edieresis" unicode="&#xcb;" horiz-adv-x="506" 
d="M426 801c0 -33 -26 -63 -60 -63s-64 26 -64 61c0 34 27 63 61 63s63 -26 63 -61zM206 801c0 -33 -26 -63 -60 -63s-64 26 -64 61c0 34 27 63 61 63s63 -26 63 -61zM478 151l-16 -151h-432v13c40 8 45 44 48 78c2 22 2 45 2 67v352c0 22 0 45 -2 67c-3 35 -8 70 -48 78v12
h435v-146h-13c-19 49 -67 47 -113 47h-131v-167h110c44 0 91 2 109 50h12c-1 -31 -2 -63 -2 -94c0 -34 1 -67 2 -101h-12c-14 45 -67 47 -107 47h-112v-150c0 -55 21 -55 71 -55h67c46 0 103 4 120 55z" />
    <glyph glyph-name="Egrave" unicode="&#xc8;" horiz-adv-x="506" 
d="M335 736h-76l-124 133h127zM478 151l-16 -151h-432v13c40 8 45 44 48 78c2 22 2 45 2 67v352c0 22 0 45 -2 67c-3 35 -8 70 -48 78v12h435v-146h-13c-19 49 -67 47 -113 47h-131v-167h110c44 0 91 2 109 50h12c-1 -31 -2 -63 -2 -94c0 -34 1 -67 2 -101h-12
c-14 45 -67 47 -107 47h-112v-150c0 -55 21 -55 71 -55h67c46 0 103 4 120 55z" />
    <glyph glyph-name="Iacute" unicode="&#xcd;" horiz-adv-x="289" 
d="M244 869l-124 -133h-76l73 133h127zM259 0c-31 1 -63 2 -94 2h-50c-28 0 -57 -1 -85 -2v12c40 9 45 46 48 81c2 22 2 43 2 64v353c0 21 0 42 -2 64c-3 34 -8 73 -48 80v13c39 -1 77 -2 116 -2c38 0 75 1 113 2v-13c-57 -10 -51 -102 -51 -144v-353c0 -21 0 -42 2 -63
c3 -35 9 -73 49 -82v-12z" />
    <glyph glyph-name="Icircumflex" unicode="&#xce;" horiz-adv-x="289" 
d="M287 735h-75l-68 79l-67 -79h-75l71 132h142zM259 0c-31 1 -63 2 -94 2h-50c-28 0 -57 -1 -85 -2v12c40 9 45 46 48 81c2 22 2 43 2 64v353c0 21 0 42 -2 64c-3 34 -8 73 -48 80v13c39 -1 77 -2 116 -2c38 0 75 1 113 2v-13c-57 -10 -51 -102 -51 -144v-353
c0 -21 0 -42 2 -63c3 -35 9 -73 49 -82v-12z" />
    <glyph glyph-name="Idieresis" unicode="&#xcf;" horiz-adv-x="289" 
d="M296 801c0 -33 -26 -63 -60 -63s-64 26 -64 61c0 34 27 63 61 63s63 -26 63 -61zM116 801c0 -33 -26 -63 -60 -63s-63 26 -63 61c0 33 26 63 60 63s63 -26 63 -61zM259 0c-31 1 -63 2 -94 2h-50c-28 0 -57 -1 -85 -2v12c40 9 45 46 48 81c2 22 2 43 2 64v353
c0 21 0 42 -2 64c-3 34 -8 73 -48 80v13c39 -1 77 -2 116 -2c38 0 75 1 113 2v-13c-57 -10 -51 -102 -51 -144v-353c0 -21 0 -42 2 -63c3 -35 9 -73 49 -82v-12z" />
    <glyph glyph-name="Igrave" unicode="&#xcc;" horiz-adv-x="289" 
d="M231 736h-75l-125 133h128zM259 0c-31 1 -63 2 -94 2h-50c-28 0 -57 -1 -85 -2v12c40 9 45 46 48 81c2 22 2 43 2 64v353c0 21 0 42 -2 64c-3 34 -8 73 -48 80v13c39 -1 77 -2 116 -2c38 0 75 1 113 2v-13c-57 -10 -51 -102 -51 -144v-353c0 -21 0 -42 2 -63
c3 -35 9 -73 49 -82v-12z" />
    <glyph glyph-name="Oacute" unicode="&#xd3;" horiz-adv-x="794" 
d="M497 869l-124 -133h-76l73 133h127zM752 336c0 -207 -142 -353 -350 -353c-209 0 -360 142 -360 353c0 213 148 347 357 347c207 0 353 -138 353 -347zM621 334c0 133 -79 248 -221 248c-144 0 -227 -116 -227 -252c0 -134 84 -245 224 -245c143 0 224 114 224 249z" />
    <glyph glyph-name="Ocircumflex" unicode="&#xd4;" horiz-adv-x="794" 
d="M540 735h-75l-68 79l-67 -79h-75l71 132h142zM752 336c0 -207 -142 -353 -350 -353c-209 0 -360 142 -360 353c0 213 148 347 357 347c207 0 353 -138 353 -347zM621 334c0 133 -79 248 -221 248c-144 0 -227 -116 -227 -252c0 -134 84 -245 224 -245
c143 0 224 114 224 249z" />
    <glyph glyph-name="apple" unicode="&#xf8ff;" horiz-adv-x="745" 
d="M723 150l-16 -134c-60 -23 -117 -33 -181 -33c-159 0 -294 85 -338 242h-167l32 75h121c-1 11 -1 23 -1 34s0 22 1 33h-153l32 74h134c41 151 168 242 323 242c47 0 91 -8 137 -19c12 -3 24 -5 36 -5c8 0 14 3 20 8h14v-145h-13c-49 42 -106 60 -170 60
c-96 0 -176 -51 -211 -141h290l-32 -74h-275c-1 -11 -2 -21 -2 -32c0 -12 1 -23 2 -35h247l-32 -75h-197c35 -88 112 -140 207 -140c66 0 131 21 179 68z" />
    <glyph glyph-name="Ograve" unicode="&#xd2;" horiz-adv-x="794" 
d="M497 736h-75l-125 133h128zM752 336c0 -207 -142 -353 -350 -353c-209 0 -360 142 -360 353c0 213 148 347 357 347c207 0 353 -138 353 -347zM621 334c0 133 -79 248 -221 248c-144 0 -227 -116 -227 -252c0 -134 84 -245 224 -245c143 0 224 114 224 249z" />
    <glyph glyph-name="Uacute" unicode="&#xda;" horiz-adv-x="686" 
d="M443 869l-124 -133h-76l73 133h127zM665 654c-57 -10 -51 -102 -51 -144v-229c0 -77 0 -149 -52 -210c-56 -66 -137 -88 -221 -88c-74 0 -153 19 -206 73c-52 53 -64 113 -64 185v269c0 41 6 136 -50 144v13c38 -1 75 -2 113 -2s77 1 115 2v-13c-40 -7 -45 -48 -48 -82
c-2 -20 -2 -41 -2 -62v-228c0 -45 0 -107 28 -145c27 -36 72 -52 116 -52c48 0 99 19 123 63c23 41 21 91 21 136v226c0 21 0 42 -2 63c-3 34 -8 74 -48 81v13c38 -1 77 -2 115 -2s75 1 113 2v-13z" />
    <glyph glyph-name="Ucircumflex" unicode="&#xdb;" horiz-adv-x="686" 
d="M486 735h-76l-67 79l-67 -79h-76l72 132h141zM665 654c-57 -10 -51 -102 -51 -144v-229c0 -77 0 -149 -52 -210c-56 -66 -137 -88 -221 -88c-74 0 -153 19 -206 73c-52 53 -64 113 -64 185v269c0 41 6 136 -50 144v13c38 -1 75 -2 113 -2s77 1 115 2v-13
c-40 -7 -45 -48 -48 -82c-2 -20 -2 -41 -2 -62v-228c0 -45 0 -107 28 -145c27 -36 72 -52 116 -52c48 0 99 19 123 63c23 41 21 91 21 136v226c0 21 0 42 -2 63c-3 34 -8 74 -48 81v13c38 -1 77 -2 115 -2s75 1 113 2v-13z" />
    <glyph glyph-name="Ugrave" unicode="&#xd9;" horiz-adv-x="686" 
d="M443 736h-75l-125 133h128zM665 654c-57 -10 -51 -102 -51 -144v-229c0 -77 0 -149 -52 -210c-56 -66 -137 -88 -221 -88c-74 0 -153 19 -206 73c-52 53 -64 113 -64 185v269c0 41 6 136 -50 144v13c38 -1 75 -2 113 -2s77 1 115 2v-13c-40 -7 -45 -48 -48 -82
c-2 -20 -2 -41 -2 -62v-228c0 -45 0 -107 28 -145c27 -36 72 -52 116 -52c48 0 99 19 123 63c23 41 21 91 21 136v226c0 21 0 42 -2 63c-3 34 -8 74 -48 81v13c38 -1 77 -2 115 -2s75 1 113 2v-13z" />
    </font>
</defs>
</svg>
